<svg xmlns="http://www.w3.org/2000/svg" xmlns:xlink="http://www.w3.org/1999/xlink" width="285.561" height="217.017" viewBox="0 0 285.561 217.017">
  <defs>
    <clipPath id="clip-path">
      <circle id="Ellipse_6" data-name="Ellipse 6" cx="14.848" cy="14.848" r="14.848" fill="none"/>
    </clipPath>
  </defs>
  <g id="Group_151" data-name="Group 151" transform="translate(-64 -95.873)">
    <g id="Group_149" data-name="Group 149" transform="translate(74.129 95.873)">
      <path id="Path_180" data-name="Path 180" d="M283.356,141.064c3.977,7.23,9.76,14.047,10.26,22.2.8,13.092-11.962,22.963-17.182,35.1-6.408,14.893-1.034,32.44-6.706,47.6-4.11,10.988-14.192,19.765-26.039,22.669-8.879,2.177-18.219,1.193-27.386,1.283-26.026.254-51.953,9.253-77.626,5.168-12.677-2.018-24.662-7.168-37.4-8.82-15.271-1.981-33.065.415-43.978-9.964-15.247-14.5-3.928-41.16-15.371-58.555-3.685-5.6-9.621-9.984-11.611-16.319-2.325-7.4,1.442-15.291,6.12-21.6s10.466-12.122,13-19.462c2.3-6.665.9-13.91-1.934-20.387C43.173,110.05,55.24,87.3,79.176,89c10.973.782,15.911-11.927,27.948-15.45,13.781-4.033,31.083-.791,41.238,2.584,10.318,3.429,23.072,5.231,28.987-3.53,8.35-12.37,33.243-14.306,44.421,5.783,4.083,7.338,7.719,13.047,16.408,12.487C285.272,87.84,277.445,130.319,283.356,141.064ZM154.992,73.191c0,1.684,0,4.575,7.427,4.1,2.279-.145,4.135-1.366,4.135-3.05s-1.851-3.051-4.135-3.051S154.992,70.5,154.992,73.191ZM81.83,81.364a1.554,1.554,0,0,0-.491.59,4.394,4.394,0,0,1-2.162,1.553,3.837,3.837,0,0,0-1.4.738,1.513,1.513,0,0,0,.146,2.18,2.932,2.932,0,0,0,1.972.429,12.5,12.5,0,0,0,7.1-2.653C89.608,82.123,83.268,80.586,81.83,81.364Zm-7.046,3.882a2.888,2.888,0,0,0-2.859.2.778.778,0,0,0-.436.425c-.114.41.4.7.826.832a3.366,3.366,0,0,0,2.028.189C75,86.679,75.654,85.817,74.784,85.247ZM41.937,138.956c-.643-1.964-2.165-2.94-4.467-1.822a8.438,8.438,0,0,0-3.152,3.152c-1.325,2.009-2.464,4.305-2.186,6.664A6.269,6.269,0,0,0,34.8,151.3a3.514,3.514,0,0,0,2.059.716,3.909,3.909,0,0,0,2.188-.96A21.668,21.668,0,0,0,42.83,146.9a5.5,5.5,0,0,0,1.309-2.541C44.379,142.344,42.529,140.762,41.937,138.956Zm240.8,60.493a3.16,3.16,0,0,0-1.527,1.061,3.081,3.081,0,0,0-.388,1.37,27.289,27.289,0,0,0-.167,2.977,3.9,3.9,0,0,0,.953,3.036c1.127,1,2.916.649,4.392.237a4.291,4.291,0,0,0,2.254-1.15,3.582,3.582,0,0,0,.642-1.687c.358-1.986,1.451-5,.239-6.025S284.846,198.588,282.735,199.448Zm-83.191,76.93a3.455,3.455,0,0,0-.764.948,2.087,2.087,0,0,0,1.075,2.766,4.39,4.39,0,0,0,1.71.2c4.954-.067,10.28-.248,14.237-3.091.483-.347.982-.834.9-1.4-.1-.691-.96-.99-1.678-1.128C210.067,273.715,203.524,272.647,199.543,276.378ZM105.5,268.73c-4.309-.581-11.162-1.4-11.16,2.082,0,1.315,6.081,2.581,7.087,2.824a81.188,81.188,0,0,1,9.066,2.983c5.641,2.084,10.159-.724,5.692-3.87A22.934,22.934,0,0,0,105.5,268.73Z" transform="translate(-29.616 -63.281)" fill="#c8eefb"/>
    </g>
    <g id="Group_147" data-name="Group 147" transform="translate(64 136.858)">
      <g id="OBJECTS" transform="translate(0 0)">
        <g id="Group_146" data-name="Group 146">
          <g id="Group_88" data-name="Group 88" transform="translate(224.176 67.853)">
            <g id="Group_73" data-name="Group 73" transform="translate(6.249)">
              <path id="Path_58" data-name="Path 58" d="M391.754,257.908a77.285,77.285,0,0,0,19.61-4.827c.3-.124.485,1.927.485,1.927s1.4-2.742,1.893-2.972c5.164-2.435,9.9-5.829,12.439-10.528,0,0,1.251,28.81-35.784,35.209Z" transform="translate(-390.396 -241.508)" fill="#5084da"/>
            </g>
            <g id="Group_74" data-name="Group 74" transform="translate(2.584 49.266)">
              <path id="Path_59" data-name="Path 59" d="M401.652,323.284s12.222,6.479,36.123,7.6c0,0-16.26,14.838-53.463,9.73l1.22-16.9Z" transform="translate(-384.312 -323.284)" fill="#5084da"/>
            </g>
            <g id="Group_75" data-name="Group 75" transform="translate(2.824 21.902)">
              <path id="Path_60" data-name="Path 60" d="M384.711,288.778a72.982,72.982,0,0,1,14.474-6.568c.357-.121,1.112,1.99,1.112,1.99s1.224-2.75,1.87-2.943c10.7-3.2,25.338-5.3,41.105-.845,0,0-4.777,6.655-14.554,13.939-.417.31-3.179.065-3.179.065s1.16,1.4.779,1.662a93.633,93.633,0,0,1-39.667,15.648Z" transform="translate(-384.711 -277.863)" fill="#5193f4"/>
            </g>
            <g id="Group_81" data-name="Group 81" transform="translate(0 24.451)" opacity="0.4">
              <g id="Group_76" data-name="Group 76">
                <path id="Path_61" data-name="Path 61" d="M441.409,282.094a137.293,137.293,0,0,1-14.392,7.973c-4.934,2.41-10.007,4.529-15.144,6.47-2.564.985-5.186,1.807-7.787,2.689l-3.946,1.182c-.658.193-1.313.4-1.975.582l-2,.5a134.54,134.54,0,0,1-16.144,3.175l4.027-.83,2.013-.406c.669-.148,1.331-.324,2-.484l3.993-.952,3.955-1.095c2.643-.7,5.24-1.571,7.857-2.363,2.582-.9,5.185-1.745,7.731-2.745,5.139-1.871,10.187-3.992,15.16-6.276q3.734-1.706,7.4-3.561Q437.828,284.117,441.409,282.094Z" transform="translate(-380.023 -282.094)" fill="#5084da"/>
              </g>
              <g id="Group_77" data-name="Group 77" transform="translate(27.951 3.07)">
                <path id="Path_62" data-name="Path 62" d="M426.419,299.567c1.021-.954,2.01-1.925,3-2.89s1.945-1.957,2.874-2.973,1.817-2.063,2.683-3.133c.845-1.086,1.644-2.207,2.407-3.38a18.175,18.175,0,0,1-1.9,3.744,27.763,27.763,0,0,1-2.6,3.308A29.447,29.447,0,0,1,426.419,299.567Z" transform="translate(-426.419 -287.19)" fill="#5084da"/>
              </g>
              <g id="Group_78" data-name="Group 78" transform="translate(13.149 8.043)">
                <path id="Path_63" data-name="Path 63" d="M401.849,307.289a26.5,26.5,0,0,0,3.086-2.4,24.267,24.267,0,0,0,2.673-2.792,22.906,22.906,0,0,0,2.218-3.16,33.817,33.817,0,0,0,1.774-3.489,14.728,14.728,0,0,1-1.224,3.782,15.827,15.827,0,0,1-2.153,3.375,16.452,16.452,0,0,1-2.895,2.763A13.226,13.226,0,0,1,401.849,307.289Z" transform="translate(-401.849 -295.444)" fill="#5084da"/>
              </g>
              <g id="Group_79" data-name="Group 79" transform="translate(27.951 14.617)">
                <path id="Path_64" data-name="Path 64" d="M426.419,307.186a51.3,51.3,0,0,0,5.665-.029c.935-.048,1.864-.158,2.792-.293s1.848-.336,2.8-.508a10.684,10.684,0,0,1-2.675,1.116,13.829,13.829,0,0,1-2.869.48,15.389,15.389,0,0,1-2.9-.083A11.313,11.313,0,0,1,426.419,307.186Z" transform="translate(-426.419 -306.356)" fill="#5084da"/>
              </g>
              <g id="Group_80" data-name="Group 80" transform="translate(13.449 19.91)">
                <path id="Path_65" data-name="Path 65" d="M402.347,315.142c1.151.138,2.292.248,3.426.366s2.269.2,3.4.248,2.264.05,3.4.02a33.952,33.952,0,0,0,3.41-.34,12.6,12.6,0,0,1-3.351.96,20.034,20.034,0,0,1-3.492.157A21.388,21.388,0,0,1,402.347,315.142Z" transform="translate(-402.347 -315.142)" fill="#5084da"/>
              </g>
            </g>
            <g id="Group_83" data-name="Group 83" transform="translate(10.342 7.487)" opacity="0.228">
              <g id="Group_82" data-name="Group 82">
                <path id="Path_66" data-name="Path 66" d="M425.076,253.935a21.422,21.422,0,0,1-4.7,7.181,31.156,31.156,0,0,1-6.81,5.321l-1.91,1.022c-.634.346-1.314.6-1.971.893a35.552,35.552,0,0,1-4.062,1.471c-.677.245-1.388.375-2.084.551l-2.1.5c-1.419.222-2.839.43-4.257.608,1.39-.357,2.789-.639,4.169-.989l2.05-.6a21.25,21.25,0,0,0,2.03-.648c1.321-.521,2.68-.94,3.947-1.58.637-.307,1.307-.549,1.923-.9l1.863-1.016a36.173,36.173,0,0,0,6.775-5.061,20.869,20.869,0,0,0,1.478-1.523c.234-.266.478-.524.7-.8l.657-.836A20.649,20.649,0,0,0,425.076,253.935Z" transform="translate(-397.189 -253.935)" fill="#605aca" opacity="0.5"/>
              </g>
            </g>
            <g id="Group_87" data-name="Group 87" transform="translate(8.222 54.396)">
              <g id="Group_84" data-name="Group 84">
                <path id="Path_67" data-name="Path 67" d="M433.687,336.309c-1.675.322-3.369.52-5.064.719q-2.546.247-5.105.374a87.308,87.308,0,0,1-10.245-.145c-1.7-.144-3.4-.34-5.094-.612a46.366,46.366,0,0,1-5.033-1.01,34.87,34.87,0,0,1-9.477-3.835,37.288,37.288,0,0,0,4.723,1.9,45.826,45.826,0,0,0,4.9,1.339,71.5,71.5,0,0,0,10.047,1.424c3.376.3,6.77.364,10.164.329S430.293,336.6,433.687,336.309Z" transform="translate(-393.67 -331.8)" fill="#4ca1ff"/>
              </g>
              <g id="Group_85" data-name="Group 85" transform="translate(13.037 4.253)">
                <path id="Path_68" data-name="Path 68" d="M426.271,345.086a12.8,12.8,0,0,1-6.542-1.293,10.086,10.086,0,0,1-2.734-2.026,7.639,7.639,0,0,1-1.684-2.908,12.541,12.541,0,0,0,2.118,2.462,13.539,13.539,0,0,0,2.659,1.761,20.744,20.744,0,0,0,3,1.192A31.857,31.857,0,0,0,426.271,345.086Z" transform="translate(-415.31 -338.859)" fill="#4ca1ff"/>
              </g>
              <g id="Group_86" data-name="Group 86" transform="translate(5.735 2.557)">
                <path id="Path_69" data-name="Path 69" d="M412.542,344.5a12.8,12.8,0,0,1-6.107-2.679,10.087,10.087,0,0,1-2.231-2.57,7.639,7.639,0,0,1-1.014-3.2,12.572,12.572,0,0,0,1.534,2.862,13.561,13.561,0,0,0,2.215,2.295,20.718,20.718,0,0,0,2.668,1.812A31.638,31.638,0,0,0,412.542,344.5Z" transform="translate(-403.19 -336.044)" fill="#4ca1ff"/>
              </g>
            </g>
          </g>
          <g id="Group_89" data-name="Group 89" transform="translate(107.277 124.805)">
            <path id="Path_70" data-name="Path 70" d="M228.515,368.853a19.877,19.877,0,0,0-15.052-6.75c-4.191.055-8.3,1.448-12.486,1.191a15.962,15.962,0,0,1-14.834-18.232c.484-3.313,2.217-6.638,5.217-8.122a10.075,10.075,0,0,1,5.341-.844,15.03,15.03,0,0,1,4.8,1.283,24.771,24.771,0,0,1,8.9,7.249c2.189,2.725,7.19,6.732,10.57,9.32,1.982,1.51,3.411,2.533,3.411,2.533C226.759,358.685,226.884,366.045,228.515,368.853Z" transform="translate(-185.983 -336.044)" fill="#52d2bc"/>
            <path id="Path_71" data-name="Path 71" d="M195.637,352.979c10.531,3,22.163,7.25,30.385,14.482" transform="translate(-189.821 -342.777)" fill="none" stroke="#00ad9f" stroke-linecap="round" stroke-linejoin="round" stroke-width="1"/>
          </g>
          <g id="Group_90" data-name="Group 90" transform="translate(154.67 125.537)">
            <path id="Path_72" data-name="Path 72" d="M290.94,345.247a13.326,13.326,0,0,1-1.363,5.128,11.544,11.544,0,0,1-2.28,2.906,17.553,17.553,0,0,1-1.461,1.237,21.3,21.3,0,0,1-6.393,3.353c-3.293,1.048-6.819,1.242-9.845,3.1a11.976,11.976,0,0,0-4.935,6.182l-.013-2.949a36.171,36.171,0,0,1,1.87-9.713,27.7,27.7,0,0,1,3.16-5.7,39.472,39.472,0,0,1,6.891-7.748,15.04,15.04,0,0,1,7.16-3.7c2.6-.389,5.358.572,6.547,2.859A9.25,9.25,0,0,1,290.94,345.247Z" transform="translate(-264.65 -337.259)" fill="#5193f4"/>
            <path id="Path_73" data-name="Path 73" stroke="#0b43a4" d="M267.684,363.389a24.469,24.469,0,0,1,8.952-10.806c2.432-1.6,5.1-2.687,7.578-4.183a14.316,14.316,0,0,0,6.036-6.256" fill="none" transform="translate(-265.856 -339.201)" stroke-linecap="round" stroke-linejoin="round" stroke-width="1" opacity="0.31"/>
          </g>
          <g id="Group_91" data-name="Group 91" transform="translate(148.352 144.296)">
            <path id="Path_74" data-name="Path 74" d="M258.257,376.51c4.632-4.6,11.2-6.7,17.662-7.628,5.387-.772,11.046-.8,16.085,1.255a8.542,8.542,0,0,1,4.07,2.966,4.017,4.017,0,0,1-.075,4.754,5.458,5.458,0,0,1-3.962,1.381c-4.732.171-9.361-1.205-13.995-2.177-7.965-1.669-16.638-2.072-23.879,1.643" transform="translate(-254.164 -368.397)" fill="#52d2bc"/>
            <path id="Path_75" data-name="Path 75" d="M270.545,376.235c9.587-4.043,23.435-2.741,29.475,1.439" transform="translate(-260.676 -370.54)" fill="none" stroke="#00ad9f" stroke-linecap="round" stroke-linejoin="round" stroke-width="1"/>
          </g>
          <g id="Group_92" data-name="Group 92" transform="translate(0 90.262)">
            <path id="Path_76" data-name="Path 76" d="M52.735,291.411c-4.332-2.081-6.408-7.628-9.968-8.82-4.411-1.525-5.648,3.4-12.78,2.184C24,283.753,22.182,277.02,12.175,279.1c-3.056.636-5.084,3.219-3.936,6.317.858,3.083,5.1,5.034,7.631,6.608,2.24,1.265,4.224,1.944,5.552,4.3.014.025.028.051.04.076.893,1.912.536,3.617,2.623,5.016,4.888,3.575,10.975-2.1,16.535-1.936,3.921.118,3.812,4.189,8.526,5.368,4.67,1.168,3.138-3.012,12.933.784a.684.684,0,0,0,.884-.392h0a.684.684,0,0,0-.144-.716C55.962,297.349,59.112,294.475,52.735,291.411Z" transform="translate(-7.913 -278.706)" fill="#4a84d8"/>
            <path id="Path_77" data-name="Path 77" d="M52.735,291.411c-4.332-2.081-6.408-7.628-9.968-8.82-4.411-1.525-5.648,3.4-12.78,2.184C24,283.753,22.182,277.02,12.175,279.1c-3.056.636-5.084,3.219-3.936,6.317.858,3.083,5.1,5.034,7.631,6.608,2.24,1.265,4.224,1.944,5.552,4.3.014.025.028.051.04.076.893,1.912.536,3.617,2.623,5.016,4.888,3.575,10.975-2.1,16.535-1.936,3.921.118,3.812,4.189,8.526,5.368,4.67,1.168,3.138-3.012,12.933.784a.684.684,0,0,0,.884-.392h0a.684.684,0,0,0-.144-.716C55.962,297.349,59.112,294.475,52.735,291.411Z" transform="translate(-7.913 -278.706)" fill="#00ad9f"/>
            <path id="Path_78" data-name="Path 78" d="M61.867,303.989c-2.285-1.108-3.98-3.11-5.829-4.85s-4.125-3.333-6.664-3.265c-1.557.042-3.113.714-4.633.368-2-.455-3.371-2.562-5.408-2.834a17.464,17.464,0,0,0-3.411.384c-3.273.216-5.832-2.572-8.512-4.463a17.644,17.644,0,0,0-10.391-3.2" transform="translate(-11.533 -281.658)" fill="none" stroke="#4ca1ff" stroke-miterlimit="10" stroke-width="1" opacity="0.5"/>
          </g>
          <g id="Group_93" data-name="Group 93" transform="translate(21.247 127.514)">
            <path id="Path_79" data-name="Path 79" d="M108.93,345.123c-14.253,1.507-16.533,2.737-19.95,1.26-4.354-1.883-8.931-1.415-13.321-3.215s-9.157-3.174-13.839-2.413c-1.48.24-3.123.842-3.33,2.578a2.849,2.849,0,0,0,.55,1.971c1.031,1.439,2.717,1.922,4.329,2.366l5.388,1.486a1.7,1.7,0,0,1-.159,3.323l-.045.006a13.006,13.006,0,0,1-4.525-.423,45.939,45.939,0,0,0-9.792-1.592c-4.01-.005-8.262,1.442-10.246,5.182A6.88,6.88,0,0,0,43.274,360c.7,4.136,4.567,5.517,8,5.207a28.342,28.342,0,0,0,6.97-1.974c5.564-2.013,10.324.207,16.238.361C90.8,364.016,108.93,345.123,108.93,345.123Z" transform="translate(-43.182 -340.541)" fill="#7ee8d4"/>
            <path id="Path_80" data-name="Path 80" d="M50.689,361.532c10.148-1.159,20.37-2.333,30.107-5.42,2.856-.9,6.535-1.155,14.6-7.1" transform="translate(-46.166 -343.907)" fill="none" stroke="#00ad9f" stroke-linecap="round" stroke-linejoin="round" stroke-width="1"/>
          </g>
          <g id="Group_94" data-name="Group 94" transform="translate(22.885 38.747)">
            <path id="Path_81" data-name="Path 81" d="M65.223,240.734a5.719,5.719,0,0,0,1.061.658c1.742.859,3.736.978,5.122,2.54a18.635,18.635,0,0,1,2.118,3.473,6.3,6.3,0,0,0,.474.742,6.87,6.87,0,0,0,6.506,3.228c.925-.022,1.883-.11,2.867-.11a9.537,9.537,0,0,1,4.836,1.142A13.183,13.183,0,0,1,91.64,255.2a.718.718,0,0,0,.911.06.777.777,0,0,0,.354-.789,10.878,10.878,0,0,0-3.2-5.83c-3.992-3.777-9.886-4.077-10.243-11.876-.075-1.671.28-2.855.013-4.045a4.2,4.2,0,0,0-1.021-1.871c-1.207-1.3-2.943-1.877-4.489-2.916-4.187-2.986-2.192-7.873-2.563-12.523-.249-3.8-3.662-6.267-6.453-8.416-3.489-2.568-3.481-7.2-5.835-10.64s-8.2-4.832-11.312-.2c-3.305,4.62-1.49,10.4-.54,15.083a10.886,10.886,0,0,0,1.251,3.3c1.741,3.042,4.731,5.208,7.314,7.785a18.5,18.5,0,0,1,3.845,5.4,15.9,15.9,0,0,1,1.193,3.781c.056.313.116.622.177.931C61.643,235.682,62.354,238.576,65.223,240.734Z" transform="translate(-45.9 -193.196)" fill="#7ee8d4"/>
            <path id="Path_82" data-name="Path 82" d="M53.639,198.281c.138,3.594.334,7.371,2.36,10.19,2.178,3.031,6.274,4.647,7.533,8.194.449,1.265.519,2.742,1.4,3.741a11.653,11.653,0,0,0,2.272,1.572c3.509,2.427,3.38,7.828,6.5,10.683a14.254,14.254,0,0,1,1.7,1.54c1.1,1.393.948,3.41,1.248,5.2a12.485,12.485,0,0,0,4.783,7.487,39.283,39.283,0,0,0,8,4.559" transform="translate(-48.976 -195.218)" fill="none" stroke="#4ca1ff" stroke-miterlimit="10" stroke-width="1" opacity="0.5"/>
            <path id="Path_83" data-name="Path 83" d="M103.434,277.349a9.536,9.536,0,0,1,4.836,1.142,5.833,5.833,0,0,1,1.5-3.766c-3.992-3.777-9.886-4.077-10.243-11.876-.075-1.671.28-2.855.013-4.045-1.191,2.5-3.328,3.013-3.16,5.567.145,2.634,3.513,5.071,4.117,8.393A6.224,6.224,0,0,0,103.434,277.349Z" transform="translate(-65.963 -219.279)" fill="#5a4fd1" opacity="0.37"/>
          </g>
          <g id="Group_95" data-name="Group 95" transform="translate(90.164 135.257)">
            <path id="Path_84" data-name="Path 84" d="M166.4,354.257c-2.693-1.064-6.289-1.5-8.015.823-1.446,1.946-.7,4.7.3,6.912a9.867,9.867,0,0,0,3.691,4.774,10.548,10.548,0,0,0,4.026,1.066,96.6,96.6,0,0,0,11.669.675,24.447,24.447,0,0,1,13.731,4.651C187,364.239,175.461,357.835,166.4,354.257Z" transform="translate(-157.578 -353.394)" fill="#5084da"/>
            <path id="Path_85" data-name="Path 85" stroke="#0b43a4" d="M164.378,364.449a42.079,42.079,0,0,1,10.176,1.36c3.363,1,16.3,6.934,18.327,9.461" fill="none" transform="translate(-160.281 -357.789)" stroke-linecap="round" stroke-linejoin="round" stroke-width="1" opacity="0.31"/>
          </g>
          <g id="Group_96" data-name="Group 96" transform="translate(226.949 35.776)">
            <path id="Path_86" data-name="Path 86" d="M388.232,222.285a5.461,5.461,0,0,0-.111,1.189c.005,1.857.752,3.617,0,5.469a17.825,17.825,0,0,1-2.074,3.292,5.9,5.9,0,0,0-.434.722,6.573,6.573,0,0,0,0,6.948c.413.783.9,1.566,1.314,2.41a9.119,9.119,0,0,1,1.08,4.629,12.615,12.615,0,0,1-.932,4.13.688.688,0,0,0,.337.806.743.743,0,0,0,.827-.033,10.406,10.406,0,0,0,3.632-5.225c1.537-5.028-.714-10.2,5.815-13.83,1.4-.775,2.565-.975,3.471-1.71a4.029,4.029,0,0,0,1.168-1.671c.6-1.588.355-3.32.587-5.087.777-4.858,5.813-5.229,9.638-7.526,3.146-1.829,3.81-5.8,4.463-9.11.714-4.082,4.685-6.046,6.632-9.528s.65-9.081-4.639-9.778c-5.365-.865-9.542,3.149-13.151,5.957a10.419,10.419,0,0,0-2.3,2.477c-1.864,2.787-2.448,6.27-3.556,9.579a17.687,17.687,0,0,1-2.988,5.591,15.2,15.2,0,0,1-2.731,2.632c-.244.181-.483.364-.722.548C391.037,217.068,388.86,218.908,388.232,222.285Z" transform="translate(-384.626 -188.264)" fill="#7ee8d4"/>
            <path id="Path_87" data-name="Path 87" d="M423.476,192.469c-3.02,1.647-6.172,3.423-7.725,6.359-1.67,3.156-1.31,7.353-3.814,9.941-.893.923-2.128,1.611-2.609,2.792a11.136,11.136,0,0,0-.38,2.615c-.586,4.039-5.267,6.228-6.384,10.118a13.591,13.591,0,0,1-.595,2.113c-.727,1.533-2.518,2.264-3.922,3.281a11.943,11.943,0,0,0-4.379,7.284,37.558,37.558,0,0,0-.5,8.8" transform="translate(-388.008 -189.935)" fill="none" stroke="#4ca1ff" stroke-miterlimit="10" stroke-width="1" opacity="0.5"/>
          </g>
          <g id="Group_97" data-name="Group 97" transform="translate(205.813 129.594)">
            <path id="Path_88" data-name="Path 88" d="M358.717,358.565c4.1,2.315,5.777,7.872,9.181,9.267,4.216,1.774,5.742-2.965,12.639-1.315,5.788,1.384,7.134,8.085,17.055,6.691,3.029-.425,5.179-2.821,4.256-5.924-.642-3.071-4.668-5.251-7.038-6.953-2.11-1.381-4.006-2.172-5.154-4.557-.011-.025-.023-.052-.034-.078-.751-1.927-.292-3.572-2.243-5.074-4.55-3.81-10.868,1.351-16.295.83-3.827-.367-3.458-4.342-7.993-5.8-4.492-1.442-3.262,2.744-12.6-1.6a.671.671,0,0,0-.89.327h0a.671.671,0,0,0,.095.71C355.943,352.55,352.678,355.158,358.717,358.565Z" transform="translate(-349.543 -343.993)" fill="#4a84d8"/>
            <path id="Path_89" data-name="Path 89" d="M358.717,358.565c4.1,2.315,5.777,7.872,9.181,9.267,4.216,1.774,5.742-2.965,12.639-1.315,5.788,1.384,7.134,8.085,17.055,6.691,3.029-.425,5.179-2.821,4.256-5.924-.642-3.071-4.668-5.251-7.038-6.953-2.11-1.381-4.006-2.172-5.154-4.557-.011-.025-.023-.052-.034-.078-.751-1.927-.292-3.572-2.243-5.074-4.55-3.81-10.868,1.351-16.295.83-3.827-.367-3.458-4.342-7.993-5.8-4.492-1.442-3.262,2.744-12.6-1.6a.671.671,0,0,0-.89.327h0a.671.671,0,0,0,.095.71C355.943,352.55,352.678,355.158,358.717,358.565Z" transform="translate(-349.543 -343.993)" fill="#00ad9f"/>
            <path id="Path_90" data-name="Path 90" d="M356.851,351.966c2.163,1.23,3.692,3.3,5.389,5.118s3.82,3.525,6.307,3.621c1.526.059,3.091-.5,4.555-.062,1.93.574,3.132,2.722,5.106,3.119a17.115,17.115,0,0,0,3.361-.156c3.215,0,5.537,2.891,8.037,4.912a17.287,17.287,0,0,0,9.957,3.793" transform="translate(-352.448 -347.163)" fill="none" stroke="#4ca1ff" stroke-miterlimit="10" stroke-width="1" opacity="0.5"/>
          </g>
          <g id="Group_111" data-name="Group 111" transform="translate(13.337 75.379)">
            <g id="Group_98" data-name="Group 98" transform="translate(0 31.911)">
              <path id="Path_91" data-name="Path 91" d="M85.12,332.608s-17.89-3.913-31.648-2.44c-.435.046.1-2.665.1-2.665s-2.835,3.009-3.55,3.124c-7.566,1.209-14.938,3.814-19.966,8.922,0,0,9.152-37.6,59.278-32.01Z" transform="translate(-30.052 -306.97)" fill="#5084da"/>
            </g>
            <g id="Group_99" data-name="Group 99" transform="translate(12.99)">
              <path id="Path_92" data-name="Path 92" d="M104.092,313.567a97.881,97.881,0,0,1-18.02-11.41c-.4-.311,1.415-2.713,1.415-2.713s-3.986.65-4.678.067C71.34,289.862,58.22,274.97,51.614,254c0,0,10.983.465,26.352,6.077.655.24,2.412,3.519,2.412,3.519s.715-2.329,1.292-2.1a125.632,125.632,0,0,1,46.749,33Z" transform="translate(-51.614 -254.001)" fill="#5193f4"/>
            </g>
            <g id="Group_106" data-name="Group 106" transform="translate(12.99 0.511)" opacity="0.4">
              <g id="Group_100" data-name="Group 100">
                <path id="Path_93" data-name="Path 93" d="M51.614,254.849a184.394,184.394,0,0,1,19.538,10.286c6.335,3.763,12.445,7.9,18.4,12.234,2.992,2.154,5.844,4.491,8.747,6.761l4.23,3.559c.7.6,1.416,1.179,2.107,1.789l2.033,1.874a180.514,180.514,0,0,1,15.442,15.782l-3.894-3.909-1.937-1.96c-.657-.642-1.343-1.255-2.012-1.884l-4.006-3.781-4.139-3.634c-2.735-2.449-5.619-4.724-8.434-7.078-2.911-2.236-5.773-4.535-8.769-6.658-5.882-4.391-11.977-8.5-18.2-12.4q-4.661-2.935-9.44-5.683Q56.519,257.378,51.614,254.849Z" transform="translate(-51.614 -254.849)" fill="#5084da"/>
              </g>
              <g id="Group_101" data-name="Group 101" transform="translate(19.98 22.341)">
                <path id="Path_94" data-name="Path 94" d="M106.735,295.749c-1.821-.443-3.639-.839-5.449-1.239-1.815-.381-3.629-.743-5.452-1.037-1.821-.314-3.652-.522-5.49-.705-1.841-.149-3.686-.22-5.565-.214a24.367,24.367,0,0,1,5.6-.619,37.121,37.121,0,0,1,5.626.484A39.535,39.535,0,0,1,106.735,295.749Z" transform="translate(-84.779 -291.933)" fill="#5084da"/>
              </g>
              <g id="Group_102" data-name="Group 102" transform="translate(8.962 13.155)">
                <path id="Path_95" data-name="Path 95" d="M81.863,277.634c-1.3-.078-2.586-.123-3.87-.172s-2.567-.059-3.847-.036-2.556.1-3.833.2c-1.274.125-2.542.3-3.823.54a16.905,16.905,0,0,1,3.745-1.114,25.726,25.726,0,0,1,3.9-.364A27.414,27.414,0,0,1,81.863,277.634Z" transform="translate(-66.49 -276.684)" fill="#5084da"/>
              </g>
              <g id="Group_103" data-name="Group 103" transform="translate(37.343 35.661)">
                <path id="Path_96" data-name="Path 96" d="M134.069,317.883a35.392,35.392,0,0,0-4.968-1.694,32.532,32.532,0,0,0-5.1-.946,30.775,30.775,0,0,0-5.179-.164,45.514,45.514,0,0,0-5.221.577,19.723,19.723,0,0,1,5.145-1.408,21.207,21.207,0,0,1,5.373-.068,22.088,22.088,0,0,1,5.232,1.215A17.747,17.747,0,0,1,134.069,317.883Z" transform="translate(-113.6 -314.043)" fill="#5084da"/>
              </g>
              <g id="Group_104" data-name="Group 104" transform="translate(32.718 14.13)">
                <path id="Path_97" data-name="Path 97" d="M115.14,290.331a68.812,68.812,0,0,0-4.2-6.336c-.742-1.013-1.549-1.975-2.384-2.918-.823-.96-1.737-1.827-2.633-2.772a14.3,14.3,0,0,1,3.221,2.18,18.623,18.623,0,0,1,2.651,2.867,20.7,20.7,0,0,1,2.043,3.32A15.151,15.151,0,0,1,115.14,290.331Z" transform="translate(-105.923 -278.304)" fill="#5084da"/>
              </g>
              <g id="Group_105" data-name="Group 105" transform="translate(47.911 23.631)">
                <path id="Path_98" data-name="Path 98" d="M140.846,309.592c-.692-1.392-1.408-2.754-2.111-4.113-.719-1.352-1.446-2.693-2.225-4s-1.61-2.577-2.478-3.828a45.55,45.55,0,0,0-2.891-3.576,16.9,16.9,0,0,1,3.543,3.054,26.9,26.9,0,0,1,2.745,3.8A28.69,28.69,0,0,1,140.846,309.592Z" transform="translate(-131.142 -294.074)" fill="#5084da"/>
              </g>
            </g>
            <g id="Group_108" data-name="Group 108" transform="translate(7.7 43.03)" opacity="0.5">
              <g id="Group_107" data-name="Group 107">
                <path id="Path_99" data-name="Path 99" d="M42.834,338.657a28.767,28.767,0,0,1,8.737-7.5,41.833,41.833,0,0,1,10.765-4.313l2.845-.6c.946-.21,1.916-.278,2.874-.415a47.79,47.79,0,0,1,5.785-.379c.965-.062,1.93.036,2.893.07l2.886.141c1.912.243,3.82.506,5.714.806-1.925-.059-3.833-.217-5.743-.283l-2.866.011c-.954.016-1.909-.033-2.858.078-1.9.178-3.805.21-5.678.56-.936.157-1.889.22-2.814.438l-2.78.613a48.566,48.566,0,0,0-10.624,3.992,28.223,28.223,0,0,0-2.474,1.411c-.4.256-.811.5-1.2.766l-1.159.833A27.728,27.728,0,0,0,42.834,338.657Z" transform="translate(-42.834 -325.427)" fill="#4ca1ff"/>
              </g>
            </g>
            <g id="Group_110" data-name="Group 110" transform="translate(33.671 43.529)" opacity="0.5">
              <g id="Group_109" data-name="Group 109">
                <path id="Path_100" data-name="Path 100" d="M90.913,326.255c-1.042,1.662-2.058,3.234-2.907,4.9a19.673,19.673,0,0,0-1.889,5.294,8.624,8.624,0,0,1,.937-5.781,13.148,13.148,0,0,1,1.659-2.453A9.91,9.91,0,0,1,90.913,326.255Z" transform="translate(-85.943 -326.255)" fill="#4ca1ff"/>
              </g>
            </g>
          </g>
          <g id="Group_119" data-name="Group 119" transform="translate(49.473 5.667)">
            <rect id="Rectangle_29" data-name="Rectangle 29" width="29.627" height="20.376" transform="translate(81.5 125.316)" fill="#0056ec"/>
            <rect id="Rectangle_30" data-name="Rectangle 30" width="29.627" height="7.385" transform="translate(81.5 125.316)" fill="#605aca" opacity="0.5"/>
            <path id="Path_101" data-name="Path 101" d="M257.862,379.587H197.726a3.439,3.439,0,0,0,0,6.878h60.137a3.439,3.439,0,0,0,3.439-3.439h0A3.439,3.439,0,0,0,257.862,379.587Z" transform="translate(-131.48 -234.216)" fill="#0056ec"/>
            <path id="Path_102" data-name="Path 102" d="M261.3,384.748a3.439,3.439,0,0,1-3.44,3.436H197.726a3.44,3.44,0,0,1-3.441-3.436,3.052,3.052,0,0,1,.109-.834,3.428,3.428,0,0,0,3.332,2.607h60.135a3.427,3.427,0,0,0,3.331-2.607A3.029,3.029,0,0,1,261.3,384.748Z" transform="translate(-131.479 -235.937)" fill="#605aca" opacity="0.5"/>
            <g id="Group_115" data-name="Group 115">
              <g id="Group_113" data-name="Group 113">
                <g id="Group_112" data-name="Group 112">
                  <rect id="Rectangle_31" data-name="Rectangle 31" width="189.616" height="126.651" rx="3.5" transform="translate(1.506 1.506)" fill="#fff"/>
                  <path id="Path_103" data-name="Path 103" d="M279.047,141.3a.6.6,0,0,1,.6.6V264.335a.6.6,0,0,1-.6.6H93.649a.6.6,0,0,1-.6-.6V141.9a.6.6,0,0,1,.6-.6h185.4m0-3.012H93.649a3.615,3.615,0,0,0-3.615,3.615V264.335a3.615,3.615,0,0,0,3.615,3.615h185.4a3.615,3.615,0,0,0,3.615-3.615V141.9a3.615,3.615,0,0,0-3.615-3.615Z" transform="translate(-90.034 -138.286)" fill="#0056ec"/>
                </g>
              </g>
              <g id="Group_114" data-name="Group 114" transform="translate(0 113.83)">
                <path id="Path_104" data-name="Path 104" d="M282.661,339.2V327.233H90.034V339.2a4.077,4.077,0,0,0,4.079,4.078H278.583A4.077,4.077,0,0,0,282.661,339.2Z" transform="translate(-90.034 -327.233)" fill="#0056ec"/>
              </g>
            </g>
            <g id="Group_118" data-name="Group 118" transform="translate(81.466 12.789)">
              <circle id="Ellipse_5" data-name="Ellipse 5" cx="14.848" cy="14.848" r="14.848" fill="#c8eefb"/>
              <g id="Group_117" data-name="Group 117">
                <g id="Group_116" data-name="Group 116" clip-path="url(#clip-path)">
                  <path id="Path_105" data-name="Path 105" d="M249.929,174.749a5.738,5.738,0,1,1-5.738-5.738A5.738,5.738,0,0,1,249.929,174.749Zm2.921,24.026V188.749a6.9,6.9,0,0,0-6.9-6.9h-3.519a6.9,6.9,0,0,0-6.9,6.9v10.026a1.912,1.912,0,0,0,1.912,1.912h13.493A1.912,1.912,0,0,0,252.85,198.775Z" transform="translate(-229.344 -163.29)" fill="#5084da"/>
                </g>
              </g>
            </g>
            <path id="Path_106" data-name="Path 106" d="M258.111,229.088H187.06a5.875,5.875,0,0,1-5.875-5.875h0a5.875,5.875,0,0,1,5.875-5.875h71.051a5.875,5.875,0,0,1,5.875,5.875h0A5.875,5.875,0,0,1,258.111,229.088Z" transform="translate(-126.272 -169.713)" fill="#c8eefb"/>
            <path id="Path_107" data-name="Path 107" d="M260.136,227.612H194.018a1.534,1.534,0,0,1-1.534-1.534h0a1.534,1.534,0,0,1,1.534-1.534h66.118a1.535,1.535,0,0,1,1.534,1.534h0A1.534,1.534,0,0,1,260.136,227.612Z" transform="translate(-130.764 -172.578)" fill="#5084da"/>
            <path id="Path_108" data-name="Path 108" d="M258.205,264.166H187.154a5.875,5.875,0,0,1-5.875-5.875h0a5.875,5.875,0,0,1,5.875-5.875h71.051a5.875,5.875,0,0,1,5.875,5.875h0A5.875,5.875,0,0,1,258.205,264.166Z" transform="translate(-126.309 -183.659)" fill="#c8eefb"/>
            <path id="Path_109" data-name="Path 109" d="M193.036,262.862h0a1.535,1.535,0,0,1-1.534-1.534h0a1.535,1.535,0,0,1,1.534-1.534h0a1.534,1.534,0,0,1,1.534,1.534h0A1.535,1.535,0,0,1,193.036,262.862Zm6.1-1.534h0a1.535,1.535,0,0,0-1.534-1.534h0a1.534,1.534,0,0,0-1.534,1.534h0a1.535,1.535,0,0,0,1.534,1.534h0A1.535,1.535,0,0,0,199.133,261.327Zm4.562,0h0a1.534,1.534,0,0,0-1.534-1.534h0a1.534,1.534,0,0,0-1.534,1.534h0a1.535,1.535,0,0,0,1.534,1.534h0A1.534,1.534,0,0,0,203.695,261.327Zm4.562,0h0a1.534,1.534,0,0,0-1.534-1.534h0a1.534,1.534,0,0,0-1.534,1.534h0a1.534,1.534,0,0,0,1.534,1.534h0A1.535,1.535,0,0,0,208.257,261.327Zm4.562,0h0a1.534,1.534,0,0,0-1.534-1.534h0a1.534,1.534,0,0,0-1.534,1.534h0a1.535,1.535,0,0,0,1.534,1.534h0A1.535,1.535,0,0,0,212.82,261.327Zm4.562,0h0a1.534,1.534,0,0,0-1.534-1.534h0a1.534,1.534,0,0,0-1.534,1.534h0a1.535,1.535,0,0,0,1.534,1.534h0A1.534,1.534,0,0,0,217.381,261.327Zm4.562,0h0a1.534,1.534,0,0,0-1.534-1.534h0a1.534,1.534,0,0,0-1.534,1.534h0a1.534,1.534,0,0,0,1.534,1.534h0A1.535,1.535,0,0,0,221.944,261.327Z" transform="translate(-130.373 -186.592)" fill="#5084da"/>
            <path id="Path_110" data-name="Path 110" d="M249.46,300.913H229.279a5.875,5.875,0,0,1-5.875-5.875h0a5.875,5.875,0,0,1,5.875-5.875H249.46a5.875,5.875,0,0,1,5.875,5.875h0A5.876,5.876,0,0,1,249.46,300.913Z" transform="translate(-143.056 -198.268)" fill="#5084da"/>
          </g>
          <path id="Path_111" data-name="Path 111" d="M345.913,331.2v-6.715a4,4,0,0,0-4-4h-.349v-6.224a16.592,16.592,0,0,0-33.184,0v6.224h-.348a4,4,0,0,0-4,4V331.2Zm-32.051-16.94a11.109,11.109,0,0,1,22.218,0v6.224H313.862Z" transform="translate(-125.636 -195.983)" opacity="0.09"/>
          <path id="Path_112" data-name="Path 112" d="M366.733,237.634a10.586,10.586,0,0,0-6.006-2.379c-.007-.221-.007-.439,0-.721a4.162,4.162,0,0,0,2.889-2.719c1.656-1.6,2.781-3.571,2.238-6.06a.483.483,0,0,1,.06-.366c-.713-1.275-2.026-1.887-3.483-3.207-4.9-4.438-10.719,1.728-8.515,4.268a4.559,4.559,0,0,1,.617,1.4c0,.016-.01.026-.013.043a2.107,2.107,0,0,0,.36,1.675,7.283,7.283,0,0,1,.044.75.437.437,0,0,1,.028.071,2.991,2.991,0,0,0,.412,1.044,3.891,3.891,0,0,0,2.5,2.931c.116.039.235.076.362.106a1.811,1.811,0,0,1,.052.8,9.63,9.63,0,0,0-3.919,1.312c-9.363,4.526-18.62,19.11-17.6,22.325s3.61,6.98,5.347,9.495l.273-.048.42,1.454a1,1,0,0,0,1.3.866,1.819,1.819,0,0,0,1.172-.334,1.252,1.252,0,0,0,.342-.624,2.645,2.645,0,0,0-.311-1.877l.2-.036s-4.036-6.04-3.889-9.723c.054-1.345,3.2-4.516,5.767-6.879-.059.82-.091,1.655-.091,2.5l-1.228,29.354s1.06.209,2.759.481l1.648,17.529h6.635l.158-16.512.26.019.231.016q.49.035.983.064l.334.019.357.021.652,16.374h6.541l1.34-16.677.025,0c.27-.043.536-.09.795-.143.115-.023.226-.049.338-.074q.326-.072.637-.154c.113-.03.224-.06.333-.093.208-.06.41-.126.607-.195.091-.032.185-.062.274-.1.278-.1.545-.216.8-.338l-.134-31.75c0-.685-.021-1.351-.06-2,0-.049-.007-.1-.01-.146q-.059-.907-.167-1.766c-.007-.057-.014-.114-.022-.17s-.013-.1-.02-.155c1.294.257,2.979.566,5.181.938a9.385,9.385,0,0,0,4.156-.257V241.56C375.211,242.186,369.076,239.048,366.733,237.634Z" transform="translate(-138.616 -165.351)" opacity="0.09"/>
          <g id="Group_120" data-name="Group 120" transform="translate(128.543 69.606)">
            <circle id="Ellipse_7" data-name="Ellipse 7" cx="10.205" cy="10.205" r="10.205" fill="#94ebff" opacity="0.3"/>
            <circle id="Ellipse_8" data-name="Ellipse 8" cx="5.538" cy="5.538" r="5.538" transform="translate(4.667 4.667)" fill="#94ebff" opacity="0.5"/>
          </g>
          <g id="Group_121" data-name="Group 121" transform="translate(174.255 101.688)">
            <path id="Path_113" data-name="Path 113" d="M320.972,297.671a16.611,16.611,0,0,0-16.592,16.592v15.956h33.184V314.263A16.611,16.611,0,0,0,320.972,297.671Zm-11.109,27.065V314.263a11.109,11.109,0,1,1,22.218,0v10.473Z" transform="translate(-300.03 -297.671)" fill="#f9714e"/>
            <path id="Path_114" data-name="Path 114" d="M323.178,303.114a13.264,13.264,0,0,0-13.249,13.249V329.1h26.5V316.363A13.264,13.264,0,0,0,323.178,303.114ZM334.287,326.9H312.069V316.427a11.109,11.109,0,1,1,22.218,0Z" transform="translate(-302.237 -299.835)" fill="#f9714e" opacity="0.4"/>
            <rect id="Rectangle_32" data-name="Rectangle 32" width="41.883" height="33.411" rx="6.766" transform="translate(0 22.816)" fill="#ffb255"/>
            <path id="Path_115" data-name="Path 115" d="M333.992,355.414a6.089,6.089,0,1,0-8.891,5.4V367.4h5.606v-6.583A6.085,6.085,0,0,0,333.992,355.414Z" transform="translate(-306.961 -318.206)" fill="#f9714e"/>
            <path id="Path_116" data-name="Path 116" d="M335.193,335.544H325.131a62.675,62.675,0,0,1-9.967,18.941c-4.047,5.258-10.418,11.931-17.625,11.791a4,4,0,0,0,3.773,2.678h33.882a4,4,0,0,0,4-4V339.544A4,4,0,0,0,335.193,335.544Z" transform="translate(-297.311 -312.728)" fill="#ffb255" opacity="0.4"/>
          </g>
          <g id="Group_126" data-name="Group 126" transform="translate(193.925 55.268)">
            <path id="Path_117" data-name="Path 117" d="M338.641,297.073l.8,2.76a1,1,0,0,0,1.3.866,1.821,1.821,0,0,0,1.172-.334,1.251,1.251,0,0,0,.342-.624,2.708,2.708,0,0,0-.383-2.007,8.029,8.029,0,0,0-1.363-1.585" transform="translate(-333.321 -250.647)" fill="#ffc2d3"/>
            <path id="Path_118" data-name="Path 118" d="M420.96,242.307a22,22,0,0,1,1.311-3.743,1.832,1.832,0,0,1,.207,1.331,3.017,3.017,0,0,1,1.468-1.55.245.245,0,0,1,.4.2,4.244,4.244,0,0,1-2.532,4.979" transform="translate(-366.047 -227.646)" fill="#ffc2d3"/>
            <path id="Path_119" data-name="Path 119" d="M373.574,387.308a13.256,13.256,0,0,1,5.382,2.226h-9.035l.173-2.1Z" transform="translate(-345.756 -286.887)" fill="#5084da"/>
            <path id="Path_120" data-name="Path 120" d="M354.092,387.308a13.257,13.257,0,0,0-5.382,2.226h9.035l-.173-2.1Z" transform="translate(-337.324 -286.887)" fill="#5084da"/>
            <g id="Group_123" data-name="Group 123" transform="translate(10.592 46.42)">
              <g id="Group_122" data-name="Group 122">
                <path id="Path_121" data-name="Path 121" d="M369.368,299.025l-4.26,53.016a14.5,14.5,0,0,1-2,.364,8.878,8.878,0,0,1-1.171-.163c-.494-.1-.924-.2-.924-.2l-1.594-40.075h-2l-.383,40.075a8.671,8.671,0,0,1-2.172.317,11.616,11.616,0,0,1-2.356-.317l-5.113-54.37Z" transform="translate(-347.392 -297.671)" fill="#2e2c84"/>
              </g>
            </g>
            <g id="Group_124" data-name="Group 124" transform="translate(16.894 46.808)" opacity="0.3">
              <path id="Path_122" data-name="Path 122" d="M365.36,298.779l-7.5-.463c-.091,9.764,1.377,44.658,1.527,54.287a9,9,0,0,0,1.807-.305l.383-40.075h2l1.594,40.075s.43.1.924.2c.146.026.294.052.439.075C366.533,341.66,365.548,303.267,365.36,298.779Z" transform="translate(-357.853 -298.316)" fill="#2e2c84" opacity="0.5"/>
            </g>
            <g id="Group_125" data-name="Group 125" transform="translate(16.759)">
              <path id="Path_123" data-name="Path 123" d="M359.115,230.316a.5.5,0,0,1,.029.071c.322,1.753,1.986,2.651,3.835,3.162,1.5.415,1.852.6,3.059-.275,2.5-1.807,4.731-4.209,4.008-7.519a.484.484,0,0,1,.06-.366c-.712-1.275-2.026-1.887-3.483-3.207-4.9-4.438-10.719,1.728-8.515,4.268A7.808,7.808,0,0,1,359.115,230.316Z" transform="translate(-357.628 -220.619)" fill="#001f64"/>
            </g>
            <path id="Path_124" data-name="Path 124" d="M370.955,261.162c0-10.078-4.171-16.344-12.16-16.344s-12.18,8.426-12.18,18.5l-1.228,29.354s18.622,3.693,25.7.237Z" transform="translate(-336.003 -230.239)" fill="#8fc2ff"/>
            <path id="Path_125" data-name="Path 125" d="M375.312,266.993a26.469,26.469,0,0,0-.972-7.508c-.708,10.967-1.671,40.166-17.994,40.049,6.067.758,14.755,1.33,19.1-.791Z" transform="translate(-340.36 -236.07)" fill="#8fc2ff" opacity="0.3"/>
            <path id="Path_126" data-name="Path 126" d="M368.452,232.625c-.3-1.983-2.066-3.972-4.224-2.941a4.362,4.362,0,0,1-3.947.133c-.033.382-.08.939-.122,1.523-.239-.438-.639-.505-.758.043-.128.586.03,1.677.662,1.881,0,.1,0,.2,0,.291.03,1.483.635,3.841,3.04,4.4a2.419,2.419,0,0,1-.065,1.392c.133.466,2,.765,2.621.216a10.953,10.953,0,0,1-.049-1.542c1.422-.228,2.61-1.631,3.147-3.433C370.9,233.39,369.366,231.195,368.452,232.625Z" transform="translate(-341.557 -224.111)" fill="#ffc2d3"/>
            <path id="Path_127" data-name="Path 127" d="M370.683,233.326a4.416,4.416,0,0,0-.975-2.161c.059,3.446-1.408,6.649-4.736,7.39.117.039.235.077.361.106a2.419,2.419,0,0,1-.065,1.392c.133.466,2,.764,2.621.216a10.963,10.963,0,0,1-.049-1.542c1.422-.228,2.61-1.631,3.147-3.433C373.133,234.09,371.6,231.9,370.683,233.326Z" transform="translate(-343.788 -224.812)" fill="#ffc2d3" opacity="0.3"/>
            <path id="Path_128" data-name="Path 128" d="M347.488,247.113c-9.364,4.526-18.62,19.11-17.6,22.325s3.61,6.98,5.347,9.495l3.4-.6s-4.036-6.04-3.889-9.723c.09-2.272,9.018-9.752,9.018-9.752Z" transform="translate(-329.81 -231.152)" fill="#8fc2ff"/>
            <path id="Path_129" data-name="Path 129" d="M378.3,245.545c1.467,1.054,13.7,8.384,20.428,1.91,4.859-4.675,5.348-5.578,5.348-5.578l1.667,2.951s-7.6,13.418-16.8,11.866-9.431-2.03-9.431-2.03Z" transform="translate(-349.088 -229.07)" fill="#8fc2ff"/>
          </g>
          <g id="Group_143" data-name="Group 143" transform="translate(63.232 57.33)">
            <path id="Path_130" data-name="Path 130" d="M121.554,303.092a14.732,14.732,0,0,0-8.362,6.32h24.853a14.73,14.73,0,0,0-8.362-6.32V242.206h-8.129v.993h-8.681v7.329h8.681v1.745h-8.681V259.6h8.681Z" transform="translate(-112.873 -231.263)" opacity="0.09"/>
            <g id="Group_128" data-name="Group 128" transform="translate(3.4 10.943)">
              <rect id="Rectangle_33" data-name="Rectangle 33" width="10.412" height="7.329" transform="translate(12.334 8.322) rotate(180)" fill="#ffb255"/>
              <rect id="Rectangle_34" data-name="Rectangle 34" width="10.412" height="7.329" transform="translate(12.334 17.396) rotate(180)" fill="#ffb255"/>
              <rect id="Rectangle_35" data-name="Rectangle 35" width="2.654" height="7.329" transform="translate(12.334 8.322) rotate(180)" fill="#ffc87c" opacity="0.5"/>
              <rect id="Rectangle_36" data-name="Rectangle 36" width="2.654" height="7.329" transform="translate(12.334 17.396) rotate(180)" fill="#ffc87c" opacity="0.5"/>
              <rect id="Rectangle_37" data-name="Rectangle 37" width="8.129" height="63.702" transform="translate(18.731 63.702) rotate(180)" fill="#ffb255"/>
              <rect id="Rectangle_38" data-name="Rectangle 38" width="1.243" height="63.702" rx="0.622" transform="translate(15.288 65.895) rotate(180)" fill="#ffc87c" opacity="0.5"/>
              <g id="Group_127" data-name="Group 127" transform="translate(0 60.309)">
                <path id="Path_131" data-name="Path 131" d="M118.516,356.98a14.667,14.667,0,1,1,14.667,14.667A14.683,14.683,0,0,1,118.516,356.98Zm7.563,0a7.1,7.1,0,1,0,7.1-7.1A7.112,7.112,0,0,0,126.079,356.98Z" transform="translate(-118.516 -342.313)" fill="#ffb255"/>
              </g>
              <path id="Path_132" data-name="Path 132" d="M129.923,361.514a7.795,7.795,0,1,0,7.794-7.794A7.8,7.8,0,0,0,129.923,361.514Zm.691,0a7.1,7.1,0,1,1,7.1,7.1A7.112,7.112,0,0,1,130.614,361.514Z" transform="translate(-123.051 -286.539)" fill="#ffc87c" opacity="0.5"/>
            </g>
            <g id="Group_142" data-name="Group 142" transform="translate(17.234)">
              <path id="Path_133" data-name="Path 133" d="M195.649,248.649c-2.572,2.28-11.846,11.991-13.545,6.706-1.346-4.185-4.168-9.942-5.822-11.874a7.9,7.9,0,0,0-4.012-2.46v-.669c1.609-.007,4.124-.322,4.124-6.117a10.4,10.4,0,0,0-.467-3.662,1.771,1.771,0,0,0,.109-1.994,5.82,5.82,0,0,0-2.418-1.734c-1.86-.824-4.289-1.207-6.073-.052a7.708,7.708,0,0,0-2.244-1.96,5.42,5.42,0,0,0-2.449-.79,4.742,4.742,0,0,0-4,2.8,6.26,6.26,0,0,0-.68,4.035,4.5,4.5,0,0,0,2.4,3.224,2.15,2.15,0,0,0,1.186.234,2.463,2.463,0,0,0,1.365-.825c.915-.953,1.071-2.089,1.744-3.119a1.14,1.14,0,0,1,.374-.35,7.423,7.423,0,0,0-.316,2.064,12.34,12.34,0,0,0,1.612,5.715,3.3,3.3,0,0,0,.957,1.251,2.358,2.358,0,0,0,1.943.29l-.186,1.42a10.292,10.292,0,0,0-3.77,1.1v0c-6.97,1.6-12.228,18.716-21.551,17.581v.023c-1.133-.316-2.378-.406-2.443.7-.128,2.173,1.222,2.451,2.443,2.272v.046a17.793,17.793,0,0,0,13.622-6.149C155.046,270.491,156.048,289,156.048,289c.672.1,1.341.185,2.008.267l1.142,12.951h5.937l.014-12.357c1.2.049,2.388.074,3.568.066l.139,12.292h6.885l1.33-12.89c1.219-.172,2.428-.377,3.622-.627-.246-7.775-.278-17.937-.794-26.739a2.861,2.861,0,0,0,1.275.732c.809.2,4.294,4.22,6.8,1.164,2.544-3.1,7.857-9.5,9.8-12.793C197.358,249.978,196.235,249.655,195.649,248.649Z" transform="translate(-141.48 -224.042)" opacity="0.09"/>
              <path id="Path_134" data-name="Path 134" d="M193.631,248.6l-.392,3,3.155.346v-3.164Z" transform="translate(-162.057 -233.807)" fill="#f9acc8"/>
              <path id="Path_135" data-name="Path 135" d="M150.692,284.418s-4.176-2.057-4.3,0c-.23,3.9,4.3,1.7,4.3,1.7Z" transform="translate(-143.431 -247.681)" opacity="0.1"/>
              <path id="Path_136" data-name="Path 136" d="M151.674,283.436s-4.176-2.058-4.3,0c-.23,3.9,4.3,1.7,4.3,1.7Z" transform="translate(-143.821 -247.291)" fill="#ffc2d3"/>
              <g id="Group_129" data-name="Group 129" transform="translate(28.725 5.154)">
                <path id="Path_137" data-name="Path 137" d="M189.161,237.637c0,2.727,2.815,6.118,5.541,6.118,1.6,0,4.194-.24,4.194-6.118,0-6.179-2.072-4.937-4.8-4.937A4.937,4.937,0,0,0,189.161,237.637Z" transform="translate(-189.161 -232.598)" fill="#ffc2d3"/>
              </g>
              <path id="Path_138" data-name="Path 138" d="M193.311,239.992a21.5,21.5,0,0,1,1.149-7.237c-.119,0-.24.007-.362.007a4.937,4.937,0,0,0-4.936,4.937c0,2.675,2.709,5.981,5.386,6.106A5.507,5.507,0,0,1,193.311,239.992Z" transform="translate(-160.436 -227.506)" fill="#ffc2d3" opacity="0.3"/>
              <path id="Path_139" data-name="Path 139" d="M196.711,232.281c-.437.065-.9-.143-1.313.022-.656.265-.7,1.265-1.3,1.633-.755.459-1.893-.336-2.554.254-.389.348-.343.96-.3,1.483a11.129,11.129,0,0,1-.451,4.1c-.094.307.311.857.07,1.066-.4.349-1.565.043-2-.261a3.342,3.342,0,0,1-.957-1.264,12.559,12.559,0,0,1-1.612-5.773,6.542,6.542,0,0,1,2.472-5.274c1.8-1.286,4.308-.9,6.219-.04a5.827,5.827,0,0,1,2.418,1.751C197.835,230.709,197.767,232.123,196.711,232.281Z" transform="translate(-159.293 -225.391)" fill="#ffb255"/>
              <path id="Path_140" data-name="Path 140" d="M198.021,229.823c-.643.575-1.292,1.613-1.777,1.952a7.5,7.5,0,0,1-2.235.8c-3.511,1.078-3.754,6.463-2.221,9.338a1.184,1.184,0,0,0,.9-.125c.242-.21-.164-.759-.07-1.066a11.131,11.131,0,0,0,.451-4.1c-.04-.523-.086-1.135.3-1.483.66-.59,1.8.2,2.554-.254.6-.367.649-1.368,1.3-1.633.41-.165.877.043,1.313-.022,1.055-.157,1.124-1.572.683-2.306A3.769,3.769,0,0,0,198.021,229.823Z" transform="translate(-161.124 -226.34)" fill="#ffc87c" opacity="0.5"/>
              <path id="Path_141" data-name="Path 141" d="M182.142,224.84a5.385,5.385,0,0,0-2.45-.8,4.745,4.745,0,0,0-4,2.831,6.379,6.379,0,0,0-.68,4.076,4.549,4.549,0,0,0,2.4,3.257,2.133,2.133,0,0,0,1.186.236,2.451,2.451,0,0,0,1.365-.834c.916-.962,1.072-2.11,1.744-3.151.544-.842,1.737-.5,2.534-1.045C186.264,228.019,183.386,225.53,182.142,224.84Z" transform="translate(-154.774 -224.042)" fill="#ffb255"/>
              <path id="Path_142" data-name="Path 142" d="M184.029,230.837c-.367-.19-.655-.533-1.019-.716-.521-.567-3.187-.863-3.743,2.85a4.414,4.414,0,0,1-1.9,2.807,3.927,3.927,0,0,0,1.017.71,2.132,2.132,0,0,0,1.186.236,2.453,2.453,0,0,0,1.365-.834c.916-.962,1.072-2.11,1.744-3.151.544-.842,1.737-.5,2.534-1.045a1.617,1.617,0,0,0,.574-.652A2.15,2.15,0,0,1,184.029,230.837Z" transform="translate(-155.749 -226.324)" fill="#ffc87c" opacity="0.5"/>
              <path id="Path_143" data-name="Path 143" d="M183.091,387.308a13.264,13.264,0,0,1,5.382,2.226h-9.035l.173-2.1Z" transform="translate(-156.57 -288.949)" fill="#f9714e"/>
              <path id="Path_144" data-name="Path 144" d="M196.536,387.308a13.257,13.257,0,0,1,5.382,2.226h-9.035l.173-2.1Z" transform="translate(-161.915 -288.949)" fill="#f9714e"/>
              <path id="Path_145" data-name="Path 145" d="M235.46,261.463a1.179,1.179,0,0,0-.189-.084,1.158,1.158,0,0,0-.933.351,15.609,15.609,0,0,0-1.833,1.581h0a2.176,2.176,0,0,0-.351.389,1.461,1.461,0,0,0-.109,1.566,1.328,1.328,0,0,0,1.08.634,2.8,2.8,0,0,0,1.9-.829,1.324,1.324,0,0,0,.081-1.61,1.3,1.3,0,0,0-.831-.684,7.061,7.061,0,0,0,1.079-.793.634.634,0,0,0,.19-.246A.229.229,0,0,0,235.46,261.463Z" transform="translate(-177.414 -238.877)" opacity="0.1"/>
              <g id="Group_132" data-name="Group 132" transform="translate(54.591 21.789)">
                <g id="Group_130" data-name="Group 130" transform="translate(0 1.373)">
                  <path id="Path_146" data-name="Path 146" d="M235.334,263.219a1.325,1.325,0,0,1-.082,1.61,2.794,2.794,0,0,1-1.9.828,1.329,1.329,0,0,1-1.08-.634,1.462,1.462,0,0,1,.109-1.566C233.041,262.5,234.667,261.971,235.334,263.219Z" transform="translate(-232.095 -262.488)" fill="#ffc2d3"/>
                </g>
                <g id="Group_131" data-name="Group 131" transform="translate(0.637)">
                  <path id="Path_147" data-name="Path 147" d="M234.692,261.775a7.038,7.038,0,0,0,1.31-.94.627.627,0,0,0,.19-.246.228.228,0,0,0-.086-.275.817.817,0,0,0-1.122.266,15.5,15.5,0,0,0-1.833,1.581A3.265,3.265,0,0,0,234.692,261.775Z" transform="translate(-233.152 -260.209)" fill="#ffc2d3"/>
                </g>
              </g>
              <g id="Group_133" data-name="Group 133" transform="translate(37.424 19.439)">
                <path id="Path_148" data-name="Path 148" d="M211.438,268.522a80.5,80.5,0,0,0,9.04-7.313.458.458,0,0,1,.654.045c.557.661,1.465,1.647,1.369,2.063a1.417,1.417,0,0,1-.377.593l-8.5,9.419a9.276,9.276,0,0,1-1.828,1.693,3.132,3.132,0,0,1-2.38.5c-1.363-.337-2.127-1.741-2.869-2.933-3.66-5.879-3.057-8-2.61-9.816.311-1.26.7-2.5.932-3.783.072-.4-.9-2.654-.344-2.682,1.653,1.931,4.132,7.816,5.821,11.874A.742.742,0,0,0,211.438,268.522Z" transform="translate(-203.6 -256.309)" fill="#f9714e"/>
              </g>
              <g id="Group_141" data-name="Group 141" transform="translate(18.82 49.215)">
                <g id="Group_134" data-name="Group 134">
                  <path id="Path_149" data-name="Path 149" d="M172.72,306.968l4.26,48.311a15.787,15.787,0,0,0,2,.331,9.771,9.771,0,0,0,1.171-.148c.493-.092.924-.183.924-.183l.043-36.519h3.523l.413,36.519a9.45,9.45,0,0,0,2.172.289,12.678,12.678,0,0,0,2.356-.289l5.113-49.545Z" transform="translate(-172.72 -305.734)" fill="#4b48b5"/>
                </g>
                <g id="Group_135" data-name="Group 135" transform="translate(10.958 4.853)">
                  <path id="Path_150" data-name="Path 150" d="M190.909,313.791a12.9,12.9,0,0,0,.482,4.6,2.879,2.879,0,0,0,2.906,1.889c2.109-.043,3.572-1.193,3.581-3.323a20.936,20.936,0,0,1,.274-3.168Z" transform="translate(-190.909 -313.789)" fill="#568edb"/>
                </g>
                <g id="Group_136" data-name="Group 136" transform="translate(0.955 4.857)">
                  <path id="Path_151" data-name="Path 151" d="M174.306,313.8a18.308,18.308,0,0,0,.357,4.6c.316,1.163,1.025,1.925,2.033,1.9,1.469-.033,2.288-1.666,2.479-3.306.031-.271.08-3.161.176-3.166Z" transform="translate(-174.306 -313.796)" fill="#568edb"/>
                </g>
                <g id="Group_137" data-name="Group 137" transform="translate(0.063 2.859)">
                  <path id="Path_152" data-name="Path 152" d="M181.159,320.642h.016a.089.089,0,0,0,.071-.1,56.86,56.86,0,0,1-.173-9.628.087.087,0,0,0-.025-.068.092.092,0,0,0-.067-.026c-.057,0-5.685.264-8.046-.333a.088.088,0,0,0-.043.171c2.211.559,7.234.375,8,.342a55.54,55.54,0,0,0,.181,9.572A.089.089,0,0,0,181.159,320.642Z" transform="translate(-172.825 -310.48)" fill="#5e9ce4"/>
                </g>
                <g id="Group_138" data-name="Group 138" transform="translate(8.729 1.923)">
                  <path id="Path_153" data-name="Path 153" d="M187.583,320.024h.008a.089.089,0,0,0,.08-.1,52.561,52.561,0,0,1-.124-9.518,74.67,74.67,0,0,0,12.121-1.31.088.088,0,0,0,.07-.1.086.086,0,0,0-.1-.071,74.207,74.207,0,0,1-12.17,1.309.087.087,0,0,0-.087.08,52.468,52.468,0,0,0,.115,9.628A.088.088,0,0,0,187.583,320.024Z" transform="translate(-187.209 -308.925)" fill="#5e9ce4"/>
                </g>
                <g id="Group_139" data-name="Group 139" transform="translate(6.337 12.908)" opacity="0.16">
                  <path id="Path_154" data-name="Path 154" d="M184.335,363.98c.493-.092.924-.183.924-.183l.043-36.519h.3a.213.213,0,0,0-.3-.092,3.664,3.664,0,0,0-1.446,1.354,2.8,2.8,0,0,0-.55,1.587C183.024,341.384,183.679,349.952,184.335,363.98Z" transform="translate(-183.238 -327.16)" fill="#4e84d9"/>
                </g>
                <g id="Group_140" data-name="Group 140" transform="translate(16.422 2.725)">
                  <path id="Path_155" data-name="Path 155" d="M200.059,356.063a.088.088,0,0,1-.079-.1l.074-.724a.085.085,0,0,1,.1-.078.088.088,0,0,1,.078.1l-.073.723a.088.088,0,0,1-.087.08Zm.217-2.128a.088.088,0,0,1-.078-.1l.143-1.4a.082.082,0,0,1,.1-.079.088.088,0,0,1,.079.1l-.143,1.4a.088.088,0,0,1-.087.079Zm.286-2.806a.088.088,0,0,1-.078-.1l.143-1.4a.088.088,0,1,1,.175.018l-.143,1.4a.088.088,0,0,1-.088.079Zm.287-2.806a.087.087,0,0,1-.078-.1l.143-1.4c0-.048.051-.093.1-.078a.088.088,0,0,1,.078.1l-.143,1.4a.088.088,0,0,1-.087.079Zm.287-2.807a.087.087,0,0,1-.078-.1l.143-1.4a.084.084,0,0,1,.1-.078.088.088,0,0,1,.079.1l-.143,1.4a.088.088,0,0,1-.087.08Zm.286-2.806a.087.087,0,0,1-.078-.1l.143-1.4c0-.048.048-.094.1-.078a.088.088,0,0,1,.078.1l-.143,1.4a.087.087,0,0,1-.087.079Zm.287-2.807a.087.087,0,0,1-.078-.1l.144-1.4a.085.085,0,0,1,.1-.078.088.088,0,0,1,.078.1l-.144,1.4a.088.088,0,0,1-.087.079ZM202,337.1a.088.088,0,0,1-.079-.1l.143-1.4c0-.049.051-.095.1-.079a.088.088,0,0,1,.079.1l-.143,1.4a.088.088,0,0,1-.087.079Zm.286-2.806a.087.087,0,0,1-.078-.1l.143-1.4a.083.083,0,0,1,.1-.078.088.088,0,0,1,.078.1l-.143,1.4a.087.087,0,0,1-.087.08Zm.287-2.807a.087.087,0,0,1-.078-.1l.144-1.4a.087.087,0,0,1,.087-.079h.009a.088.088,0,0,1,.078.1l-.144,1.4a.088.088,0,0,1-.087.079Zm.287-2.807a.088.088,0,0,1-.079-.1l.143-1.4c0-.048.052-.094.1-.079a.087.087,0,0,1,.078.1l-.143,1.4a.088.088,0,0,1-.087.079Zm.286-2.806a.088.088,0,0,1-.078-.1l.143-1.4a.084.084,0,0,1,.1-.078.087.087,0,0,1,.078.1l-.143,1.4a.088.088,0,0,1-.087.079Zm.287-2.806a.087.087,0,0,1-.078-.1l.143-1.4a.082.082,0,0,1,.1-.078.088.088,0,0,1,.078.1l-.144,1.4a.088.088,0,0,1-.087.079Zm.287-2.806a.088.088,0,0,1-.079-.1l.143-1.4a.086.086,0,0,1,.1-.079.087.087,0,0,1,.078.1l-.143,1.4a.088.088,0,0,1-.088.08Zm.286-2.807a.088.088,0,0,1-.078-.1l.143-1.4c0-.048.051-.095.1-.078a.087.087,0,0,1,.078.1l-.143,1.4a.088.088,0,0,1-.087.079Zm.287-2.807a.088.088,0,0,1-.079-.1l.144-1.4a.083.083,0,0,1,.1-.078.088.088,0,0,1,.079.1l-.144,1.4a.088.088,0,0,1-.087.079Zm.287-2.807a.087.087,0,0,1-.079-.1l.143-1.4c0-.048.048-.095.1-.079a.087.087,0,0,1,.078.1l-.143,1.4a.087.087,0,0,1-.087.079Z" transform="translate(-199.979 -310.257)" fill="#5e9ce4"/>
                </g>
              </g>
              <path id="Path_156" data-name="Path 156" d="M172.988,253.65c-6.97,1.6-12.227,18.716-21.55,17.581v3.045c4.363,0,10.322-1.393,15.207-8.088C173.709,256.506,172.988,253.65,172.988,253.65Z" transform="translate(-145.439 -235.813)" fill="#f9714e"/>
              <path id="Path_157" data-name="Path 157" d="M172.988,253.65c-6.97,1.6-12.227,18.716-21.55,17.581v3.045c4.363,0,10.322-1.393,15.207-8.088C173.709,256.506,172.988,253.65,172.988,253.65Z" transform="translate(-145.439 -235.813)" fill="#f9714e" opacity="0.3"/>
              <path id="Path_158" data-name="Path 158" d="M191.653,254.5c4.28,4.905,3.923,29.776,4.411,45.221a70.749,70.749,0,0,1-24.645.3s-1.347-24.885,2.991-38.981C177.355,251.469,187.136,249.325,191.653,254.5Z" transform="translate(-153.304 -235.062)" fill="#f9714e"/>
              <path id="Path_159" data-name="Path 159" d="M177.322,290.719a54.776,54.776,0,0,1-2.307-16.17c.013-4.618.127-9.632,1.34-14.191a15.205,15.205,0,0,0-1.945,4.1c-4.338,14.1-2.991,38.981-2.991,38.981a84.384,84.384,0,0,0,12.815.924A41.3,41.3,0,0,1,177.322,290.719Z" transform="translate(-153.304 -238.48)" fill="#f9714e" opacity="0.3"/>
            </g>
          </g>
          <g id="Group_144" data-name="Group 144" transform="translate(27.097 42.395)">
            <path id="Path_160" data-name="Path 160" d="M68.152,238.038c.629-.033,4.918-3.21,6.57-4.28a4.526,4.526,0,0,0,1.262-1.066,1.591,1.591,0,0,0,.24-1.565,1.975,1.975,0,0,0-2.007-1.24,4.555,4.555,0,0,0-3.918,1.781C66.862,235.222,68.152,238.038,68.152,238.038Z" transform="translate(-58.864 -211.43)" fill="#00ad9f"/>
            <path id="Path_161" data-name="Path 161" d="M98.205,262.864c1.868.839,3.863,1.676,5.893,1.416a2.207,2.207,0,0,0,1.91-1.208,1.765,1.765,0,0,0-.593-1.825,4.214,4.214,0,0,0-1.837-.828,18.464,18.464,0,0,0-8.437.428A21.673,21.673,0,0,0,98.205,262.864Z" transform="translate(-69.688 -223.442)" fill="#00ad9f"/>
            <path id="Path_162" data-name="Path 162" d="M119.487,216.287c-.833-.527-1.753-1.23-1.753-2.215a1.969,1.969,0,0,1,2.019-1.746,4.141,4.141,0,0,1,2.647,1.186,7.229,7.229,0,0,1,2.751,5.9S120.414,216.873,119.487,216.287Z" transform="translate(-78.67 -204.449)" fill="#00ad9f"/>
            <path id="Path_163" data-name="Path 163" d="M123.326,202.674a4.04,4.04,0,0,1-1.914-1.363,1.3,1.3,0,0,1-.2-1.1c.215-.612.6-1.16,2.139-.881,4.877.885,5.94,4.226,5.94,4.226S124.621,203.231,123.326,202.674Z" transform="translate(-80.032 -199.251)" fill="#00ad9f"/>
            <path id="Path_164" data-name="Path 164" d="M148.476,212.541a7.709,7.709,0,0,0,5.21-2.672,4.767,4.767,0,0,0,1.047-1.938,2.122,2.122,0,0,0-.572-2.04,2.157,2.157,0,0,0-2.526,0A5.078,5.078,0,0,0,150,208.018C149.481,209.1,148.476,212.541,148.476,212.541Z" transform="translate(-90.892 -201.728)" fill="#00ad9f"/>
            <path id="Path_165" data-name="Path 165" d="M75.542,283.14,61.33,270.611c-2.525-2.225-5.1-4.517-6.7-7.478-3.438-6.366-1.456-14.638,3.186-20.187s11.442-8.826,18.273-11.212,13.941-4.058,20.453-7.211c4.083-1.978,8.19-4.925,9.31-9.322a9.3,9.3,0,0,0-8.46-11.581" transform="translate(-52.892 -200.988)" fill="none" stroke="#086356" stroke-linecap="round" stroke-linejoin="round" stroke-width="1"/>
            <path id="Path_166" data-name="Path 166" d="M148.27,209.66c-1.295,3.975-6.337,6.393-8.638,9.836" transform="translate(-87.376 -203.389)" fill="none" stroke="#086356" stroke-linecap="round" stroke-linejoin="round" stroke-width="1"/>
            <path id="Path_167" data-name="Path 167" d="M123.921,217.248a37.884,37.884,0,0,1,3.048,3.07,6.679,6.679,0,0,1-.725,8.867" transform="translate(-81.13 -206.406)" fill="none" stroke="#086356" stroke-linecap="round" stroke-linejoin="round" stroke-width="1"/>
            <path id="Path_168" data-name="Path 168" d="M81.576,254.185a27.035,27.035,0,0,0,14.946,5.571" transform="translate(-64.295 -221.09)" fill="none" stroke="#086356" stroke-linecap="round" stroke-linejoin="round" stroke-width="1"/>
            <path id="Path_169" data-name="Path 169" d="M65.225,253.313a14.75,14.75,0,0,1,4.959-16.077" transform="translate(-57.513 -214.352)" fill="none" stroke="#086356" stroke-linecap="round" stroke-linejoin="round" stroke-width="1"/>
          </g>
          <g id="Group_145" data-name="Group 145" transform="translate(199.869)">
            <path id="Path_170" data-name="Path 170" d="M340.529,132.847a2.094,2.094,0,0,1,.3-2.09,1.533,1.533,0,0,1,1.633-.367c4.144,1.828,3.7,8.311,3.7,8.311S342.231,138.132,340.529,132.847Z" transform="translate(-339.96 -129.439)" fill="#00ad9f"/>
            <path id="Path_171" data-name="Path 171" d="M340.145,153.7c-2.68,4.859,6.846,4.488,10.281,1.627C350.427,155.323,342.453,149.514,340.145,153.7Z" transform="translate(-339.676 -138.144)" fill="#00ad9f"/>
            <path id="Path_172" data-name="Path 172" d="M360.05,132.655a2.573,2.573,0,0,1-.172-3.057,2.347,2.347,0,0,1,2.24-.668,5.245,5.245,0,0,1,2.518,1.539,8.225,8.225,0,0,1,1.662,7.741S361.109,134.112,360.05,132.655Z" transform="translate(-347.536 -128.879)" fill="#00ad9f"/>
            <path id="Path_173" data-name="Path 173" d="M423.162,153.379a2.15,2.15,0,0,1,.409-2.21,1.87,1.87,0,0,1,1.394-.418,4.228,4.228,0,0,1,1.425.427,4.559,4.559,0,0,1,2.194,2.188,8.933,8.933,0,0,1,.378,5.447S423.738,155.265,423.162,153.379Z" transform="translate(-372.816 -137.572)" fill="#00ad9f"/>
            <path id="Path_174" data-name="Path 174" d="M398.137,168.937a6.1,6.1,0,0,0-6.317-1.019,3.24,3.24,0,0,0-1.351,1.017,3.117,3.117,0,0,0,.292,3.593A7.9,7.9,0,0,0,393.9,174.7c2.12.965,5.411,1.158,7.667,1.736A10.926,10.926,0,0,0,398.137,168.937Z" transform="translate(-359.691 -144.213)" fill="#00ad9f"/>
            <path id="Path_175" data-name="Path 175" d="M345.551,136.266c1.4,4.6,5.368,8.074,9.784,9.952s9.28,2.374,14.067,2.685,9.631.465,14.26,1.725c4.512,1.228,9,3.787,10.94,8.055,2.356,5.194.27,11.407-3.039,16.05s-7.763,8.385-10.964,13.1c-1.47,2.166-2.7,4.7-2.4,7.307.4,3.471,3.312,6.027,6.021,8.223" transform="translate(-342.012 -131.816)" fill="none" stroke="#086356" stroke-linecap="round" stroke-linejoin="round" stroke-width="1"/>
            <path id="Path_176" data-name="Path 176" d="M363.865,133.464a27.571,27.571,0,0,1,6.325,13.73" transform="translate(-349.293 -130.702)" fill="none" stroke="#086356" stroke-linecap="round" stroke-linejoin="round" stroke-width="1"/>
            <path id="Path_177" data-name="Path 177" d="M346.16,155.127a21.911,21.911,0,0,0,5.529.974,8.434,8.434,0,0,0,5.4-2.346" transform="translate(-342.254 -138.769)" fill="none" stroke="#086356" stroke-linecap="round" stroke-linejoin="round" stroke-width="1"/>
            <path id="Path_178" data-name="Path 178" d="M428.4,155.593a9.409,9.409,0,0,1,2.821,6.333,11.084,11.084,0,0,1-2.794,7.006" transform="translate(-374.948 -139.5)" fill="none" stroke="#086356" stroke-linecap="round" stroke-linejoin="round" stroke-width="1"/>
            <path id="Path_179" data-name="Path 179" d="M398.885,173.431a94.517,94.517,0,0,0,10.122,8.33c1.722,1.215,5.142,2.773,6.659,2.372" transform="translate(-363.215 -146.591)" fill="none" stroke="#086356" stroke-linecap="round" stroke-linejoin="round" stroke-width="1"/>
          </g>
        </g>
      </g>
    </g>
  </g>
</svg>
