<svg xmlns="http://www.w3.org/2000/svg" width="266.17" height="216.163" viewBox="0 0 266.17 216.163">
  <g id="Group_150" data-name="Group 150" transform="translate(-74 -147.849)">
    <g id="Group_148" data-name="Group 148" transform="translate(82.085 147.849)">
      <path id="Path_180" data-name="Path 180" d="M277.637,139.311c3.887,7.067,9.54,13.731,10.029,21.7.785,12.8-11.693,22.445-16.794,34.3-6.263,14.558-1.011,31.709-6.554,46.53-4.017,10.74-13.872,19.319-25.452,22.158-8.679,2.128-17.808,1.166-26.768,1.254-25.44.248-50.782,9.045-75.876,5.051-12.392-1.973-24.106-7.006-36.554-8.621-14.927-1.936-32.32.406-42.987-9.739-14.9-14.173-3.839-40.232-15.024-57.235-3.6-5.475-9.4-9.759-11.349-15.951-2.273-7.236,1.409-14.946,5.982-21.114S46.519,145.8,49,138.623c2.248-6.515.875-13.6-1.891-19.927-4.238-9.7,7.557-31.941,30.954-30.274,10.725.764,15.552-11.659,27.318-15.1,13.471-3.942,30.382-.773,40.308,2.526,10.085,3.352,22.552,5.113,28.333-3.451,8.162-12.091,32.494-13.984,43.42,5.652,3.991,7.173,7.545,12.753,16.038,12.205C279.509,87.286,271.859,128.808,277.637,139.311ZM152.165,72.968c0,1.647,0,4.472,7.259,4.01,2.227-.142,4.042-1.335,4.042-2.982s-1.809-2.982-4.042-2.982S152.165,70.336,152.165,72.968ZM80.653,80.957a1.519,1.519,0,0,0-.48.577,4.3,4.3,0,0,1-2.113,1.518,3.751,3.751,0,0,0-1.368.721,1.479,1.479,0,0,0,.142,2.131,2.866,2.866,0,0,0,1.928.419A12.218,12.218,0,0,0,85.7,83.73C88.255,81.7,82.059,80.2,80.653,80.957Zm-6.888,3.795a2.823,2.823,0,0,0-2.795.2.761.761,0,0,0-.426.415c-.111.4.4.684.807.813a3.29,3.29,0,0,0,1.983.184C73.974,86.151,74.617,85.309,73.766,84.751Zm-32.107,52.5c-.629-1.919-2.116-2.874-4.366-1.781a8.248,8.248,0,0,0-3.08,3.08c-1.3,1.964-2.409,4.208-2.137,6.513a6.128,6.128,0,0,0,2.6,4.256,3.435,3.435,0,0,0,2.013.7,3.821,3.821,0,0,0,2.138-.938,21.178,21.178,0,0,0,3.7-4.068,5.374,5.374,0,0,0,1.28-2.484C44.046,140.562,42.238,139.016,41.659,137.25Zm235.37,59.129a3.089,3.089,0,0,0-1.493,1.037,3.012,3.012,0,0,0-.379,1.339,26.687,26.687,0,0,0-.163,2.91,3.816,3.816,0,0,0,.932,2.968c1.1.975,2.85.634,4.293.231a4.194,4.194,0,0,0,2.2-1.124,3.5,3.5,0,0,0,.627-1.649c.35-1.942,1.419-4.884.234-5.889S279.093,195.538,277.029,196.379Zm-81.316,75.2a3.378,3.378,0,0,0-.747.926,2.04,2.04,0,0,0,1.05,2.7,4.29,4.29,0,0,0,1.671.2c4.842-.065,10.048-.242,13.916-3.021.472-.339.96-.815.877-1.373-.1-.675-.939-.967-1.64-1.1C206,268.972,199.6,267.927,195.713,271.574ZM103.79,264.1c-4.212-.568-10.91-1.372-10.909,2.035,0,1.286,5.944,2.523,6.927,2.76a79.352,79.352,0,0,1,8.861,2.916c5.514,2.037,9.93-.707,5.564-3.783A22.417,22.417,0,0,0,103.79,264.1Z" transform="translate(-29.616 -63.281)" fill="#c8eefb"/>
    </g>
    <g id="Group_53" data-name="Group 53" transform="translate(74 192.667)">
      <path id="Path_9" data-name="Path 9" d="M1304.836,299.885c0-2.687-55.255-4.866-123.415-4.866s-123.416,2.179-123.416,4.866,55.255,4.865,123.416,4.865S1304.836,302.572,1304.836,299.885Z" transform="translate(-1058.005 -133.405)" fill="#d3e3eb" opacity="0.43"/>
      <g id="Group_18" data-name="Group 18" transform="translate(54.43 29.932)">
        <rect id="Rectangle_2" data-name="Rectangle 2" width="5.614" height="53.692" transform="translate(23.1 78.015)" fill="#b0c4cb"/>
        <rect id="Rectangle_3" data-name="Rectangle 3" width="5.614" height="7.548" transform="translate(23.1 78.015)" fill="#91adb7"/>
        <path id="Rectangle_4" data-name="Rectangle 4" d="M3.805,0H49.773a3.805,3.805,0,0,1,3.805,3.805V4.927a0,0,0,0,1,0,0H0a0,0,0,0,1,0,0V3.805A3.805,3.805,0,0,1,3.805,0Z" transform="translate(0 131.725)" fill="#b0c4cb"/>
        <path id="Path_10" data-name="Path 10" d="M1134.278,219.052h38.908c-14.157-5.084-8.681-52.981-6.064-71.137a6.068,6.068,0,0,0-6.011-6.931H1135.2a10.619,10.619,0,0,0-10.524,9.163c-2.274,16.5-5.857,50.7,1.241,63.948A9.475,9.475,0,0,0,1134.278,219.052Z" transform="translate(-1121.682 -140.984)" fill="#b0c4cb"/>
      </g>
      <g id="Group_20" data-name="Group 20" transform="translate(149.912)">
        <path id="Path_11" data-name="Path 11" d="M1284.229,105.971h-46.545a4.321,4.321,0,0,0-4.321,4.321v20.97a4.32,4.32,0,0,0,4.321,4.321h3.25v5.071a.813.813,0,0,0,1.358.6l6.294-5.675h35.643a4.32,4.32,0,0,0,4.32-4.321v-20.97A4.321,4.321,0,0,0,1284.229,105.971Z" transform="translate(-1233.364 -105.971)" fill="#82bbf1"/>
        <g id="Group_19" data-name="Group 19" transform="translate(14.374 13.221)">
          <path id="Path_12" data-name="Path 12" d="M1253.984,123.339a1.9,1.9,0,1,1-1.9-1.9A1.9,1.9,0,0,1,1253.984,123.339Z" transform="translate(-1250.178 -121.436)" fill="#476488"/>
          <path id="Path_13" data-name="Path 13" d="M1267.678,123.339a1.9,1.9,0,1,1-1.9-1.9A1.9,1.9,0,0,1,1267.678,123.339Z" transform="translate(-1252.165 -121.436)" fill="#476488"/>
          <circle id="Ellipse_4" data-name="Ellipse 4" cx="1.903" cy="1.903" r="1.903" transform="translate(22.632 0)" fill="#476488"/>
        </g>
      </g>
      <g id="Group_23" data-name="Group 23" transform="translate(31.043 46.065)">
        <g id="Group_21" data-name="Group 21" transform="translate(1.138)">
          <path id="Path_14" data-name="Path 14" d="M1111.84,170.131c0-5.133-3.625-10.276-8.1-10.276s-8.1,5.143-8.1,10.276,3.625,9.293,8.1,9.293S1111.84,175.263,1111.84,170.131Z" transform="translate(-1095.648 -159.855)" fill="#83b6ec"/>
          <path id="Path_15" data-name="Path 15" d="M1104.766,159.855a5.974,5.974,0,0,0-2.078.391c3.462,1.277,6.017,5.579,6.017,9.885s-2.555,7.918-6.017,8.973a7.126,7.126,0,0,0,2.078.321c4.471,0,8.1-4.161,8.1-9.293S1109.237,159.855,1104.766,159.855Z" transform="translate(-1096.67 -159.855)" fill="#476488" opacity="0.25"/>
        </g>
        <g id="Group_22" data-name="Group 22" transform="translate(0 15.008)">
          <path id="Path_16" data-name="Path 16" d="M1094.325,178.751l1.451,13.136a3.24,3.24,0,0,0,3.221,2.885h8.374a3.241,3.241,0,0,0,3.221-2.885l1.452-13.136a1.208,1.208,0,0,0-1.2-1.34h-15.319A1.207,1.207,0,0,0,1094.325,178.751Z" transform="translate(-1094.317 -177.411)" fill="#d3e3eb"/>
          <path id="Path_17" data-name="Path 17" d="M1095.524,179.374h15.319a1.187,1.187,0,0,1,1.057.674l.144-1.3a1.208,1.208,0,0,0-1.2-1.34h-15.319a1.207,1.207,0,0,0-1.2,1.34l.143,1.3A1.188,1.188,0,0,1,1095.524,179.374Z" transform="translate(-1094.317 -177.411)" fill="#b0c4cb"/>
          <path id="Path_18" data-name="Path 18" d="M1112.157,177.411h-5.311a1.208,1.208,0,0,1,1.2,1.34l-1.451,13.136a3.241,3.241,0,0,1-3.221,2.885h5.312a3.24,3.24,0,0,0,3.221-2.885l1.452-13.136A1.208,1.208,0,0,0,1112.157,177.411Z" transform="translate(-1095.631 -177.411)" fill="#b0c4cb"/>
        </g>
      </g>
      <g id="Group_28" data-name="Group 28" transform="translate(58.628 1.271)">
        <g id="Group_26" data-name="Group 26" transform="translate(0.418 80.103)">
          <g id="Group_24" data-name="Group 24" transform="translate(22.444 5.91)">
            <path id="Path_19" data-name="Path 19" d="M1192.031,285.617l-.55,3.8,2.889,3.7,7.327-3.587.793-3.472-9.12-1.379Z" transform="translate(-1158.865 -219.188)" fill="#ffc2d3"/>
            <path id="Path_20" data-name="Path 20" d="M1197.773,298.639l.756-.937a.352.352,0,0,1,.543-.007l.76.891a1.583,1.583,0,0,0,1.233.556l17.022-.29a.914.914,0,0,0,.029-1.287c-2.495-2.518-15.923-6.872-16.591-7.238s-4.776,2.824-10.216-.109a57.657,57.657,0,0,0-1.008,7.022,1.943,1.943,0,0,0,1.965,2.052l4.321-.074A1.559,1.559,0,0,0,1197.773,298.639Z" transform="translate(-1158.693 -219.993)" fill="#2c3c4d"/>
            <path id="Path_21" data-name="Path 21" d="M1155.254,210.346s-7.068,7.813,5.875,16.3c9.081,5.957,16.236,4.137,21.936,7.748a4.8,4.8,0,0,1,2.446,3.686l.29,36.528.688.342a12.55,12.55,0,0,0,10.915.119h0l5.154-41.677c.184-2.873-1.368-5.3-3.147-7.558-9.9-12.59-27.421-16.856-31.855-17.583C1161.789,207.31,1155.254,210.346,1155.254,210.346Z" transform="translate(-1153.328 -208.073)" fill="#2c3c4d"/>
          </g>
          <g id="Group_25" data-name="Group 25">
            <path id="Path_22" data-name="Path 22" d="M1159.1,285.615l-.6,3.789,2.838,3.735,7.375-3.486.841-3.461-9.1-1.5Z" transform="translate(-1131.633 -213.28)" fill="#ffc2d3"/>
            <path id="Path_23" data-name="Path 23" d="M1164.654,298.713l.768-.926a.353.353,0,0,1,.543,0l.747.9a1.586,1.586,0,0,0,1.225.573l17.025-.057a.914.914,0,0,0,.047-1.287c-2.459-2.552-15.827-7.089-16.49-7.464s-4.813,2.758-10.213-.25a57.8,57.8,0,0,0-1.105,7.007,1.946,1.946,0,0,0,1.938,2.079l4.321-.014A1.559,1.559,0,0,0,1164.654,298.713Z" transform="translate(-1131.445 -214.081)" fill="#2c3c4d"/>
            <path id="Path_24" data-name="Path 24" d="M1129.958,202.53s-8.564,9.545,3.819,20.327c8.688,7.564,16.484,4.329,21.955,8.942a5.092,5.092,0,0,1,2.042,4.226l-3.91,37.156.294.191a11.772,11.772,0,0,0,11.419.779h0L1175.26,235c.606-2.993-.677-5.761-2.222-8.4-8.594-14.651-22.087-23.384-26.644-24.785C1140.47,200,1129.958,202.53,1129.958,202.53Z" transform="translate(-1127.073 -201.159)" fill="#2c3c4d"/>
          </g>
          <path id="Path_25" data-name="Path 25" d="M1182.511,233.389a17,17,0,0,0-1.994-.692,17.046,17.046,0,0,0-2.176-5.057,67.063,67.063,0,0,0-14.713-17.249c3.1-.526,4.682-1.191,5.541-2.064a58.254,58.254,0,0,1,9.3,2.521C1182.677,217.886,1182.664,229.316,1182.511,233.389Z" transform="translate(-1132.378 -202.199)" fill="#1f2e40"/>
        </g>
        <path id="Path_26" data-name="Path 26" d="M1152.973,143.655s-12.352-1.647-17.485,7.978-12.8,47.355-6.1,48.5c2.968.508,10.882,2.5,19.651,1.858,12.057-.882,14.677-1.992,15.546-4.285l7.681-35.161a14.866,14.866,0,0,0-5.83-12.413A41.876,41.876,0,0,0,1152.973,143.655Z" transform="translate(-1126.612 -112.695)" fill="#f9714e"/>
        <path id="Path_27" data-name="Path 27" d="M1178.781,162.156s.161,21.175,6.818,22.459,24.383.882,24.383.882v6.737h-38.018Z" transform="translate(-1133.17 -115.396)" fill="#f6987f"/>
        <path id="Path_28" data-name="Path 28" d="M1167.459,148.393l1.5-7.49-9.714-7.4-1.861,8.828S1160.447,155.814,1167.459,148.393Z" transform="translate(-1131.054 -111.238)" fill="#ff8eaf"/>
        <path id="Path_29" data-name="Path 29" d="M1179.2,122.85s-5.081,2.473-12.527-2.065c0,0-1.727,3.1-6.716,5.877,0,0-2.593-4.346-4.085-1.089a6.869,6.869,0,0,0-.686,2.658c-4.673-6.035-1.378-13.988,2.979-18.274,4.128-4.069,13.067-2.451,18.65-.207,5.926,2.385,7.015-1.765,7.015-1.765C1191.322,118.536,1179.2,122.85,1179.2,122.85Z" transform="translate(-1130.406 -107.458)" fill="#2c3c4d"/>
        <path id="Path_30" data-name="Path 30" d="M1160.342,128.923s-2.593-4.346-4.086-1.09c-1.81,3.951.234,6.429,2.684,6.429,0,0,1.946,10.276,11.387,9.549s10.8-15.886,9.26-18.7c0,0-5.083,2.474-12.528-2.065C1167.06,123.045,1165.335,126.154,1160.342,128.923Z" transform="translate(-1130.79 -109.72)" fill="#ffc2d3"/>
        <g id="Group_27" data-name="Group 27" transform="translate(43.249 43.237)">
          <path id="Path_31" data-name="Path 31" d="M1248.615,158.034h-39.408a4.086,4.086,0,0,0-4,3.27l-5.246,25.715h47.75l4.913-24.08A4.087,4.087,0,0,0,1248.615,158.034Z" transform="translate(-1180.482 -158.034)" fill="#d3e3eb"/>
          <path id="Rectangle_5" data-name="Rectangle 5" d="M2.26,0h64.5a2.26,2.26,0,0,1,2.26,2.26v0a2.26,2.26,0,0,1-2.26,2.26H2.26A2.26,2.26,0,0,1,0,2.26v0A2.26,2.26,0,0,1,2.26,0Z" transform="translate(0 28.987)" fill="#8ba6af"/>
          <path id="Path_32" data-name="Path 32" d="M1247.465,191.942h-48.121a1.945,1.945,0,0,1,1.945,1.945v.63a1.945,1.945,0,0,1-1.945,1.945h48.121a1.945,1.945,0,0,0,1.946-1.945v-.63A1.945,1.945,0,0,0,1247.465,191.942Z" transform="translate(-1180.393 -162.955)" fill="#b0c4cb"/>
        </g>
        <path id="Path_33" data-name="Path 33" d="M1173.88,184.235c-7.672-.893-29.2-3.09-32.885-3.471-4.651-.481,5.454-19.25,6.578-25.667s-3.77-6.657-3.77-6.657c-2.761-.345-5.775,0-8.341,3.887-5.253,7.956-11.1,31.213-8.02,36.954a2.076,2.076,0,0,0,1.835,1.087h44.6Z" transform="translate(-1126.585 -113.39)" fill="#f9714e"/>
        <path id="Path_34" data-name="Path 34" d="M1175.845,184.236s-27.711-1.907-33.687-2.709c-4.635-.622,5.027-19.851,6.149-26.268s-3.849-6.149-3.849-6.149a11.9,11.9,0,0,0-4.328.407,8.015,8.015,0,0,1,5.641-1.078s4.889.244,3.767,6.66-9.786,24.785-6.858,25.506C1146.281,181.492,1168.171,183.344,1175.845,184.236Z" transform="translate(-1128.551 -113.391)" fill="#1f2e40"/>
        <path id="Path_35" data-name="Path 35" d="M1181.908,196.679h10.338a.976.976,0,0,0,.82-1.509c-.968-1.488-2.5-3.589-3.617-3.945a49.038,49.038,0,0,0-7.54.171Z" transform="translate(-1134.613 -119.6)" fill="#ffc2d3"/>
        <path id="Path_36" data-name="Path 36" d="M1181.359,125.461a8.23,8.23,0,0,1-2.341.584c-.126.7-.351,2.044-.472,3.319-.173,1.818.736,7.447.173,7.49a16.4,16.4,0,0,1-1.732-.043s-.865,8.139-9,6.841l-.211-.032a10.287,10.287,0,0,0,4.328.543C1181.54,143.436,1182.9,128.275,1181.359,125.461Z" transform="translate(-1132.561 -110.07)" fill="#ff8eaf" opacity="0.67"/>
      </g>
      <g id="Group_33" data-name="Group 33" transform="translate(180.93 74.618)">
        <g id="Group_29" data-name="Group 29" transform="translate(28.71 8.018)">
          <path id="Path_37" data-name="Path 37" d="M1319.507,254.926s12.983-6.439,9.452-16.2-5.712-10.178,1.039-15.684,16.515-19.319,4.155-20.357-11.737,15.373-22.019,17.657S1296.241,265.624,1319.507,254.926Z" transform="translate(-1303.231 -202.635)" fill="#83b6ec"/>
          <path id="Path_38" data-name="Path 38" d="M1310.318,255.894c2.493,1.157,5.846,1.043,10.218-.968,0,0,12.983-6.439,9.451-16.2s-5.712-10.178,1.039-15.684,16.515-19.319,4.155-20.357a11.359,11.359,0,0,0-3.295.177c3.478,1.445,6.939,4.311,2.466,9.616-7.446,8.832-11.43,11.949-10.564,17.664C1324.633,235.712,1324.153,248.363,1310.318,255.894Z" transform="translate(-1304.259 -202.635)" fill="#476488" opacity="0.25"/>
        </g>
        <g id="Group_30" data-name="Group 30" transform="translate(0 21.666)">
          <path id="Path_39" data-name="Path 39" d="M1292.614,256.931s-11.425-.415-10.8-8.621.941-8.527-6.232-11.114c-12.671-4.57-2.64-28.908,7.686-13.606,7.167,10.62,10.283,8.231,14.957,9.062S1313.076,260.566,1292.614,256.931Z" transform="translate(-1269.647 -218.599)" fill="#83b6ec"/>
          <path id="Path_40" data-name="Path 40" d="M1298.37,232.653c-4.674-.831-7.79,1.558-14.956-9.062-5.4-8.009-10.723-5.153-12.752.038,3.04-.931,7.659-1.491,8.234,3.457.746,6.42,15.765,16.961,15.458,30.065.2.021.392.036.585.05,2.185-5.763,5.069-13.238,7.538-19.606C1301.157,234.85,1299.581,232.868,1298.37,232.653Z" transform="translate(-1269.794 -218.6)" fill="#476488" opacity="0.29"/>
        </g>
        <g id="Group_31" data-name="Group 31" transform="translate(15.265)">
          <path id="Path_41" data-name="Path 41" d="M1297.855,252.89s-14.178-13.866-9.348-16.2,14.333,5.3,9.036-2.96-11.465-21.119-4.143-19.094,7.853,4.25,6.947-5.366c-1.172-12.44,5.764-18.852,12.308-14.8s-5.609,31.471-1.091,28.51,8.257-5.452,9.192-1.87-12.935,17.653-7.79,15.268c6.388-2.96,7.322,2.337,5.3,5.609S1307.825,264.73,1297.855,252.89Z" transform="translate(-1287.503 -193.256)" fill="#476488"/>
          <path id="Path_42" data-name="Path 42" d="M1320.574,241.986c2.025-3.272,1.091-8.569-5.3-5.609-5.146,2.384,8.725-11.685,7.79-15.268s-4.674-1.091-9.192,1.87,7.634-24.46,1.091-28.51a6.679,6.679,0,0,0-8.519.715c3.387.828,6.1,3.553,4.219,10.91-3.983,15.586-6.407,28.574.866,24.764,6.851-3.589-7.957,12.949-8.108,24.869C1311.926,260.584,1318.774,244.893,1320.574,241.986Z" transform="translate(-1289.814 -193.257)" fill="#2c3c4d" opacity="0.48"/>
        </g>
        <g id="Group_32" data-name="Group 32" transform="translate(15.785 58.727)">
          <path id="Path_43" data-name="Path 43" d="M1288.126,264.485l2.744,24.842a6.128,6.128,0,0,0,6.091,5.456H1312.8a6.128,6.128,0,0,0,6.091-5.456l2.744-24.842a2.282,2.282,0,0,0-2.268-2.533h-28.97A2.283,2.283,0,0,0,1288.126,264.485Z" transform="translate(-1288.112 -261.952)" fill="#d3e3eb"/>
          <path id="Path_44" data-name="Path 44" d="M1321.849,261.952h-10.044a2.283,2.283,0,0,1,2.269,2.533l-2.744,24.842a6.128,6.128,0,0,1-6.092,5.456h10.045a6.128,6.128,0,0,0,6.091-5.456l2.744-24.842A2.282,2.282,0,0,0,1321.849,261.952Z" transform="translate(-1290.597 -261.952)" fill="#b0c4cb"/>
        </g>
      </g>
      <g id="Group_52" data-name="Group 52" transform="translate(18.56 78.27)">
        <g id="Group_34" data-name="Group 34" transform="translate(5.362)">
          <rect id="Rectangle_6" data-name="Rectangle 6" width="176.698" height="8.021" rx="4.01" transform="translate(0 0)" fill="#5d8ac8"/>
          <path id="Path_45" data-name="Path 45" d="M1259.235,197.527h-169.8a3.452,3.452,0,0,0-3.451,3.451V202.1a3.406,3.406,0,0,0,.179,1.045,3.439,3.439,0,0,1,3.272-2.407h169.8a3.439,3.439,0,0,1,3.273,2.407,3.421,3.421,0,0,0,.179-1.045v-1.119A3.451,3.451,0,0,0,1259.235,197.527Z" transform="translate(-1085.988 -197.527)" fill="#4772a6"/>
        </g>
        <g id="Group_51" data-name="Group 51" transform="translate(0 8.061)">
          <g id="Group_36" data-name="Group 36" transform="translate(17.325)">
            <g id="Group_35" data-name="Group 35">
              <path id="Path_46" data-name="Path 46" d="M1145.137,286.923h-5.675l-39.481-79.967h5.675Z" transform="translate(-1099.982 -206.956)" fill="#476488"/>
            </g>
          </g>
          <g id="Group_38" data-name="Group 38">
            <g id="Group_37" data-name="Group 37">
              <path id="Path_47" data-name="Path 47" d="M1079.716,286.923h5.675l39.481-79.967H1119.2Z" transform="translate(-1079.716 -206.956)" fill="#476488"/>
            </g>
          </g>
          <g id="Group_40" data-name="Group 40" transform="translate(139.561)">
            <g id="Group_39" data-name="Group 39">
              <path id="Path_48" data-name="Path 48" d="M1288.123,286.923h-5.675l-39.481-79.967h5.675Z" transform="translate(-1242.967 -206.956)" fill="#476488"/>
            </g>
          </g>
          <g id="Group_42" data-name="Group 42" transform="translate(122.236)">
            <g id="Group_41" data-name="Group 41">
              <path id="Path_49" data-name="Path 49" d="M1222.7,286.923h5.675l39.481-79.967h-5.675Z" transform="translate(-1222.701 -206.956)" fill="#476488"/>
            </g>
          </g>
          <g id="Group_44" data-name="Group 44" transform="translate(17.325)">
            <g id="Group_43" data-name="Group 43">
              <path id="Path_50" data-name="Path 50" d="M1107.221,210.125l-1.564-3.168h-5.675l1.564,3.168Z" transform="translate(-1099.982 -206.956)" fill="#293951"/>
            </g>
          </g>
          <g id="Group_46" data-name="Group 46" transform="translate(37.917)">
            <g id="Group_45" data-name="Group 45">
              <path id="Path_51" data-name="Path 51" d="M1129.744,210.125l1.564-3.168h-5.675l-1.564,3.168Z" transform="translate(-1124.069 -206.956)" fill="#293951"/>
            </g>
          </g>
          <g id="Group_48" data-name="Group 48" transform="translate(139.561)">
            <g id="Group_47" data-name="Group 47">
              <path id="Path_52" data-name="Path 52" d="M1250.205,210.125l-1.564-3.168h-5.675l1.564,3.168Z" transform="translate(-1242.967 -206.956)" fill="#293951"/>
            </g>
          </g>
          <g id="Group_50" data-name="Group 50" transform="translate(160.152)">
            <g id="Group_49" data-name="Group 49">
              <path id="Path_53" data-name="Path 53" d="M1272.729,210.125l1.564-3.168h-5.675l-1.564,3.168Z" transform="translate(-1267.054 -206.956)" fill="#293951"/>
            </g>
          </g>
        </g>
      </g>
    </g>
  </g>
</svg>
