<svg xmlns="http://www.w3.org/2000/svg" width="111.81" height="58" viewBox="0 0 111.81 58">
  <g id="Group_1" data-name="Group 1" transform="translate(-180.19 -123)">
    <g id="email_4_" data-name="email (4)" transform="translate(180 123)">
      <path id="XMLID_1220_" d="M37.5,54H9.289A9.393,9.393,0,0,1,0,44.538V9.462A9.393,9.393,0,0,1,9.289,0H65.711A9.393,9.393,0,0,1,75,9.462V44.538A9.393,9.393,0,0,1,65.711,54H33.743" transform="translate(35 3)" fill="#ffd502"/>
      <path id="Shape" d="M11.2,58A11.359,11.359,0,0,1,0,46.475V11.549A11.379,11.379,0,0,1,11.2,0H66.8A11.394,11.394,0,0,1,78,11.549v34.9A11.379,11.379,0,0,1,66.8,58Z" transform="translate(34)"/>
      <path id="Shape-2" data-name="Shape" d="M.529,35.291A2.165,2.165,0,0,0,2.113,36a2.051,2.051,0,0,0,1.4-.526L21.757,19.685l5.919,4.508a2.082,2.082,0,0,0,1.3.435,2.129,2.129,0,0,0,1.3-.435l6.105-4.645,18.059,15.9a2.051,2.051,0,0,0,1.4.526,2.141,2.141,0,0,0,1.585-.686,2.062,2.062,0,0,0-.163-2.929l-17.477-15.4L57.177,3.714A2.031,2.031,0,0,0,57.55.808,2.119,2.119,0,0,0,54.59.442L28.981,19.96l-6.012-4.6L3.418.465A2.117,2.117,0,0,0,.459.831,2.029,2.029,0,0,0,.832,3.737L18.378,17.123.738,32.385A2,2,0,0,0,.529,35.291Z" transform="translate(46 10)"/>
      <path id="Shape-3" data-name="Shape" d="M18.881,4A2.069,2.069,0,0,0,21,2a2.069,2.069,0,0,0-2.119-2H2.119A2.069,2.069,0,0,0,0,2,2.069,2.069,0,0,0,2.119,4Z" transform="translate(7.949 30.712) rotate(-20)" fill="#7e7d7d"/>
      <path id="Shape-4" data-name="Shape" d="M2.083,4H26.917A2.05,2.05,0,0,0,29,2a2.05,2.05,0,0,0-2.083-2H2.083A2.05,2.05,0,0,0,0,2,2.065,2.065,0,0,0,2.083,4Z" transform="translate(0.19 22.08) rotate(-20)" fill="#7e7d7d"/>
      <path id="Shape-5" data-name="Shape" d="M16,2a2.126,2.126,0,0,0-2.22-2H2.22A2.126,2.126,0,0,0,0,2,2.126,2.126,0,0,0,2.22,4H13.78A2.126,2.126,0,0,0,16,2Z" transform="translate(14.798 39.857) rotate(-20)" fill="#7e7d7d"/>
    </g>
  </g>
</svg>
