<svg xmlns="http://www.w3.org/2000/svg" viewBox="0 0 147.56 170.41"><defs><style>.cls-1{fill:#ddd2f3;}.cls-2{fill:#8aa9fc;}.cls-3{fill:#e3707f;}.cls-4{fill:#edc483;}.cls-5{fill:#e8947e;}.cls-6{fill:#251a51;}.cls-7{fill:#f6aea6;}.cls-8{fill:#1a3066;}.cls-9{fill:#6338a1;}.cls-10,.cls-14{fill:#fff;}.cls-10{opacity:0.41;}.cls-11{fill:#ffbb7d;}.cls-12{fill:#6e3281;}.cls-13{fill:#ede6f5;}</style></defs><g id="Layer_2" data-name="Layer 2"><g id="Objects"><path class="cls-1" d="M133.63.72a10.19,10.19,0,0,0-6.32,6.13,10.49,10.49,0,0,0,.79,8.78c2.93,5.06,10.47,6.69,15.23,3.29s5.68-11,1.86-15.47S133.66-1.18,129.61,3"/><path class="cls-2" d="M50.64,88.72c-1.57,1.51-2.17,3.86-.67,5.67a4.39,4.39,0,0,0,5.9.71c4.26-3.29-.18-9.35-4.77-8.09a.76.76,0,0,0,.2,1.49,6.06,6.06,0,0,1,3.85,1.07,2.79,2.79,0,0,1,.24,3.88c-2.51,3.08-6.85-1.45-4.22-4.2a.38.38,0,0,0-.53-.53Z"/><path class="cls-3" d="M94.46,93.92c.57,2.14,1.21,4.25,1.87,6.37a.68.68,0,0,0,1.08.37c1.71-1.17,3.43-2.32,5.06-3.61a.61.61,0,0,0-.06-1c-1.91-1.31-4.48-3.25-6.9-3.26-.62,0-1.05.86-.43,1.22a25.48,25.48,0,0,0,3.19,1.2,17.16,17.16,0,0,1,3.46,1.85c0-.35,0-.7.07-1.06-1.82,1.13-3.53,2.38-5.26,3.63l1,.21c-.74-2.09-1.5-4.16-2.31-6.22-.18-.44-.92-.2-.79.26Z"/><path class="cls-4" d="M106.53,105.25A49.82,49.82,0,0,0,114,101a.79.79,0,0,0-.88-1.32,49.36,49.36,0,0,0-7.05,4.65c-.44.35-.12,1.23.46,1Z"/><path class="cls-5" d="M12.38,113.06a50.84,50.84,0,0,0-2.24-8.32.8.8,0,0,0-1.51.51,48.1,48.1,0,0,0,2.71,8c.22.52,1.16.43,1-.2Z"/><path class="cls-6" d="M20.42,88.43l-.14-.13A1.62,1.62,0,1,0,18,90.58l.13.15a1.63,1.63,0,1,0,2.3-2.3Z"/><path class="cls-3" d="M88.55,160.14s-26.87,6.25-37.66-4.54l3.86-25.77c1.18-7.41.48-21.67,6.15-26.72a9.86,9.86,0,0,1,2.16-1.47c4-1.92,11.06-3,17.86-3,8.25,0,16.75,6.22,18.92,14.19l-8.94,20.9Z"/><path class="cls-7" d="M85.89,116.05s12,23.18,6.06,24.41c-19.66,4.06-31.07,7.39-31.07,7.39l-1,7.64c.29,1.15,39.77.15,44.45-5.15,3.3-3.75,7.69-12.4-1.65-31.13l-2.84-6.37Z"/><path class="cls-7" d="M63.29,104.11l-30,11.6L32.38,100,26,97.51s-9.3,25.23,2.34,29.93,24.75-4,24.75-4Z"/><path class="cls-3" d="M67,100.25c-10.46,3.34-16.7,7.24-31.43,13.39l7.56,16.86,13-4.18Z"/><polyline class="cls-3" points="84.09 112.84 91.69 130.5 108.84 127.37 97.28 107.48 83.61 112.84"/><path class="cls-8" d="M75.12,124.88c3.65-.2,7.26,0,10.9,0,.32,0,.3-.44,0-.48a53.66,53.66,0,0,0-10.9,0c-.27,0-.28.44,0,.43Z"/><path class="cls-8" d="M91.47,104.39c-12.33,1.12-3.9,19.31-.73,24.81a.27.27,0,0,0,.47-.27c-3.14-5.57-11.55-22.5.3-24.24.17,0,.14-.31,0-.3Z"/><path class="cls-8" d="M57.28,114.79a102.6,102.6,0,0,0-2.92,18.6c0,.26.42.32.46.06.88-6.2,1.77-12.39,2.77-18.57,0-.2-.26-.29-.31-.09Z"/><path class="cls-6" d="M86.16,81.19l.56-7.82A3.93,3.93,0,0,0,89,68.21a5,5,0,0,0-5.25-2.76c1.33-.91,1.23-3.07.14-4.25a6.21,6.21,0,0,0-4.41-1.62,33.53,33.53,0,0,1-4.81-.17c-1.4-.26-2.77-.9-4.19-.72s-2.76,1.77-2,3c-2-.3-4.24-.57-6,.41s-2.72,3.78-1.17,5.13a2.24,2.24,0,0,0-.7,3,3.63,3.63,0,0,0,2.91,1.6,10.76,10.76,0,0,0,3.41-.5"/><path class="cls-7" d="M85.82,76.12l-.41,5.42s4.61.62,3.3,4.82-4.47,2.36-4.47,2.36-.78,10.76-11.81,7.35C63.66,93.35,64.2,82,65.31,72.31A6.49,6.49,0,0,1,73,66.7L79.62,68A7.68,7.68,0,0,1,85.82,76.12Z"/><path class="cls-7" d="M85.41,86l-3,15.84a6.35,6.35,0,0,1-7.72,5h0a6.36,6.36,0,0,1-4.78-7.29l1.62-9.08Z"/><path class="cls-6" d="M73.22,86.21s0,.22-.27.38-.88-.18-1-.71a5,5,0,0,1-.12-1.79c0-.68.07-1.38.11-2.11a27.22,27.22,0,0,1,.6-5.41A29.73,29.73,0,0,1,72.44,82c-.06.73-.11,1.43-.16,2.11a5.65,5.65,0,0,0,0,1.65c.08.44.4.66.61.63S73.18,86.18,73.22,86.21Z"/><path class="cls-6" d="M69.64,95a14.88,14.88,0,0,1,1.48.7,9.92,9.92,0,0,0,3.74.86,9.78,9.78,0,0,0,3.77-.7,13.68,13.68,0,0,1,1.51-.64s-.43.51-1.35,1A8.43,8.43,0,0,1,71,96,3.48,3.48,0,0,1,69.64,95Z"/><path class="cls-6" d="M71.8,88.43c.06-.05.3.18.76.39a2.71,2.71,0,0,0,1.88.14,2.65,2.65,0,0,0,1.44-1.21c.26-.43.32-.77.4-.76s.14.37-.06.92a2.57,2.57,0,0,1-3.83,1.23C71.9,88.81,71.75,88.47,71.8,88.43Z"/><path class="cls-6" d="M85.76,86.88c0-.08.27-.12.57-.3a.77.77,0,0,0,.34-.43c0-.2,0-.38-.16-.43a.25.25,0,0,0-.28,0l-.44-.23c.41-.86.79-1.45.89-1.4s-.08.72-.43,1.6l-.45-.23a.74.74,0,0,1,.89-.27.75.75,0,0,1,.46.49.94.94,0,0,1,0,.58,1,1,0,0,1-.63.61C86,87.06,85.76,86.94,85.76,86.88Z"/><path class="cls-6" d="M77.27,76.21c0-.13.52-.43,1.25-.24s1.08.74,1,.82-.53-.17-1.1-.31S77.32,76.35,77.27,76.21Z"/><path class="cls-6" d="M67.74,74.7c-.06-.12.51-.5,1.31-.43s1.3.54,1.21.65-.6-.08-1.26-.13S67.8,74.84,67.74,74.7Z"/><path class="cls-6" d="M85.41,81.54c-3.07-3-4-8-4.81-12.21a10.82,10.82,0,0,1-10.06,1.31A16.17,16.17,0,0,1,67,73.76a1.54,1.54,0,0,1-1.26.35c-.52-.15-.75-.74-.87-1.27a8.94,8.94,0,0,1,.18-5.1,6.13,6.13,0,0,1,3.42-3.68,9,9,0,0,1,5.44.09,30.09,30.09,0,0,1,7.69,3.18c2.35,1.38,4.62,3.2,5.61,5.74s1,7.47-1.41,8.76"/><path class="cls-6" d="M78.1,80.62c-.14,0-.23-.39-.2-.85s.18-.82.32-.81.24.39.2.85S78.25,80.63,78.1,80.62Z"/><path class="cls-6" d="M69.25,79.49c-.14,0-.23-.39-.2-.85s.18-.82.32-.81.23.39.2.85S69.4,79.5,69.25,79.49Z"/><path class="cls-7" d="M25.64,98s1.33-8.17,2.92-8.09,4.77,0,4.77,0,.27-7.77,1.15-6.54,1.16,11.7-2.25,16.72Z"/><path class="cls-7" d="M60.88,147.85s-14.26,2.5-14,4.35a13.5,13.5,0,0,0,1.28,3.72l12.7-.3Z"/><polygon class="cls-9" points="76.36 156.36 76.25 154.39 46.88 152.59 37.03 126.24 4.79 128.01 15.79 156.51 76.36 156.36"/><path class="cls-10" d="M22.56,140.56A2.39,2.39,0,1,0,24.82,138,2.39,2.39,0,0,0,22.56,140.56Z"/><path class="cls-10" d="M21.61,140.61a3.34,3.34,0,1,0,3.16-3.52A3.34,3.34,0,0,0,21.61,140.61Z"/><path class="cls-1" d="M0,157l126.09-1.58,7.39,3.88S36.68,185.82,0,157Z"/><path class="cls-1" d="M98.63,63.67c-.38.74.87,19.89.87,19.89l9.43-.79-1.1,5.06,4.6-5.2,9.23-1.06L121.1,63Z"/><path class="cls-11" d="M74.69,33.85A7.15,7.15,0,0,0,68,41.1s.1,3.79,2.16,5.2,2,2.92,2,2.92H77.5a4.88,4.88,0,0,1,.65-3c.87-1.08,3-3.36,2.71-6.71S78,33.52,74.69,33.85Z"/><path class="cls-9" d="M72,50.92c1.94-.09,3.91.13,5.84,0,.27,0,.37-.45.06-.51a19.45,19.45,0,0,0-5.9,0c-.29,0-.31.48,0,.46Z"/><path class="cls-9" d="M72.74,52.62c.78,0,1.55-.08,2.33-.07s1.56.14,2.33.08a.26.26,0,0,0,.07-.51,12.66,12.66,0,0,0-4.79.05c-.26,0-.2.46.06.45Z"/><path class="cls-9" d="M73.38,53.88c.68,0,1.38.24,2.05.22a.3.3,0,0,0,.08-.58,6.89,6.89,0,0,0-2.13-.11.24.24,0,0,0,0,.47Z"/><path class="cls-9" d="M73.69,49.15c.15-1.93-.5-4.06-.83-5.95l-.57.24c.28.45.73,1.74,1.42,1.69s1-1.33,1.09-1.85h-.62c.14.59.16,2,1.09,1.89s1.32-1.29,1.57-1.93l-.65-.18A13.42,13.42,0,0,0,76,49.23a.32.32,0,0,0,.62-.08c-.06-2-.34-3.95.26-5.91.12-.42-.49-.57-.65-.18-.09.22-.6,1.49-1.08,1.33a5.58,5.58,0,0,1-.31-1.28.32.32,0,0,0-.62,0c-.07.39-.23,1.44-.69,1.13a4.41,4.41,0,0,1-.66-1.11.31.31,0,0,0-.57.23c.3,1.9.38,4.1,1.14,5.86.07.16.28.06.29-.07Z"/><path class="cls-11" d="M54.56,46.74c2.89-.92,5.87-1.71,8.69-2.82a.19.19,0,0,0-.1-.37c-2.94.73-5.83,1.82-8.71,2.74-.28.09-.16.54.12.45Z"/><path class="cls-11" d="M58.11,38.15A53.48,53.48,0,0,0,63.63,38a.24.24,0,0,0,0-.48,50.86,50.86,0,0,0-5.52.13.26.26,0,0,0,0,.52Z"/><path class="cls-11" d="M66.84,35c-2-1.78-4-4-6.33-5.42a.36.36,0,0,0-.44.57c1.79,2,4.3,3.53,6.4,5.22.26.21.63-.15.37-.37Z"/><path class="cls-11" d="M71.45,32.25a3.3,3.3,0,0,0-.71-1.6A8.2,8.2,0,0,0,69.67,29c-.22-.24-.69,0-.57.33a8.61,8.61,0,0,0,1,1.72c.3.46.6,1.11,1.12,1.35a.14.14,0,0,0,.2-.11Z"/><path class="cls-11" d="M75.77,31.09a57.69,57.69,0,0,0-.14-8.42.32.32,0,0,0-.64,0,59.25,59.25,0,0,0,.21,8.42.29.29,0,0,0,.57,0Z"/><path class="cls-11" d="M79,32.41a23.34,23.34,0,0,0,2-3.16.34.34,0,0,0-.59-.34,24.39,24.39,0,0,0-1.79,3.25.25.25,0,0,0,.43.25Z"/><path class="cls-11" d="M81.49,34.71a40,40,0,0,0,4-2,22.08,22.08,0,0,0,3.85-2.26.3.3,0,0,0-.29-.5,20.36,20.36,0,0,0-3.69,1.95,44.9,44.9,0,0,0-4,2.42c-.2.14-.09.54.18.43Z"/><path class="cls-11" d="M83.29,38.3a4,4,0,0,0,3.54-.66.35.35,0,0,0-.34-.59c-.54.09-1,.38-1.58.5s-1.08.12-1.62.23c-.28.06-.23.44,0,.52Z"/><path class="cls-11" d="M83.71,43.3a104.91,104.91,0,0,0,11.86,2.59c.48.06.55-.69.11-.82a102.31,102.31,0,0,0-11.8-2.39c-.4-.07-.58.52-.17.62Z"/><path class="cls-12" d="M28.67,111.14a5.8,5.8,0,0,1,.59-2.43c.95-1.5,2.31-1.13,3.63-.46a4.51,4.51,0,0,0,4.06.45c2.27-1,3.34-4.42,1.17-6-.71-.53-1.4.34-1.3,1,.13.92.59,1.94-.21,2.73-1,1.06-2.29.17-3.35-.31a4.4,4.4,0,0,0-3.52-.15c-2,.82-3.5,3.56-1.89,5.42a.49.49,0,0,0,.82-.22Z"/><path class="cls-4" d="M58.56,112.8a50.62,50.62,0,0,0,8.13-2.87.8.8,0,0,0-.63-1.46,48.35,48.35,0,0,0-7.78,3.31c-.49.26-.33,1.19.28,1Z"/><path class="cls-13" d="M45,115.65c.58,2.13,1.21,4.25,1.87,6.36a.67.67,0,0,0,1.08.38c1.72-1.17,3.44-2.32,5.07-3.61a.62.62,0,0,0-.07-1c-1.9-1.3-4.48-3.24-6.9-3.25-.62,0-1,.86-.42,1.22a24.35,24.35,0,0,0,3.19,1.2,17.71,17.71,0,0,1,3.46,1.85c0-.35,0-.71.07-1.06-1.82,1.12-3.54,2.38-5.27,3.63l1,.21c-.73-2.09-1.49-4.17-2.31-6.22a.42.42,0,0,0-.79.26Z"/><path class="cls-12" d="M48.76,137.06a50.52,50.52,0,0,0,8.61,0,.78.78,0,0,0-.09-1.55,49.64,49.64,0,0,0-8.44.5c-.55.08-.72,1-.08,1Z"/><path class="cls-14" d="M103.79,72.24l2,6.89,2.78-.54-.27-1.39.78-.47,1.49,1.47,4.7-.92.61-1.8-1.34-.3,1.73-.57-.38-1.93-1.49.13,2.05-.56L116,69.87l-4.77.93s.3-3.34-1.11-4.43l-1.07.21a6.06,6.06,0,0,1,.33,1.7,36.21,36.21,0,0,1-1,3.63l-1.46.68-.35-1Z"/><polygon class="cls-1" points="6.63 59.34 8.23 78.42 43.37 78.42 45.32 85.14 47.37 77.78 54.07 77.39 50.98 60.29 6.63 59.34"/><path class="cls-14" d="M11.24,66.4A269,269,0,0,1,47.49,67c.43,0,.44-.64,0-.67a265.79,265.79,0,0,0-36.25-.54c-.37,0-.38.61,0,.59Z"/><path class="cls-14" d="M12,70.17a269.06,269.06,0,0,1,36.25.62c.43,0,.43-.64,0-.68A267.43,267.43,0,0,0,12,69.58c-.38,0-.38.6,0,.59Z"/><path class="cls-14" d="M12,73.32c8.13.28,16.17-.32,24.3.41.43,0,.43-.65,0-.68-8.12-.55-16.17-.2-24.3-.32a.3.3,0,0,0,0,.59Z"/></g></g></svg>