<svg xmlns="http://www.w3.org/2000/svg" viewBox="0 0 151.89 132.96"><defs><style>.cls-1{opacity:0.54;}.cls-2{fill:#ddd2f3;}.cls-3{fill:#8aa9fc;}.cls-4{fill:#d6b0ea;}.cls-5{fill:#edc483;}.cls-6{fill:#e3707f;}.cls-7{fill:#e8947e;}.cls-8{fill:#251a51;}</style></defs><g id="Layer_2" data-name="Layer 2"><g id="Objects"><g class="cls-1"><path class="cls-2" d="M38.59,130.49C20,124.21,3.84,108.62.54,89.27S9.44,48.1,28.62,43.9c9.07-2,18.86-.21,27.53-3.55,16.34-6.28,21.9-27.54,37-36.41,14.55-8.54,34.5-2.38,45.33,10.55s14,30.77,13.34,47.63c-1,24.76-11.5,51.47-34,62-18.93,8.82-58.95,11.32-79.25,6.42"/></g><path class="cls-3" d="M124.57,47.54c-1.57,1.51-2.17,3.85-.67,5.67a4.4,4.4,0,0,0,5.9.7c4.26-3.28-.18-9.34-4.77-8.08a.76.76,0,0,0,.2,1.49,6,6,0,0,1,3.86,1.07,2.8,2.8,0,0,1,.23,3.88c-2.5,3.07-6.85-1.46-4.22-4.21a.37.37,0,0,0-.53-.52Z"/><path class="cls-4" d="M120.44,26.49s5.32,11.94,6.8,11.31,15.21-9.14,15.21-9.14S136.83,18,135.66,17.35,120.44,26.49,120.44,26.49Z"/><path class="cls-5" d="M87,44.11c.21,1.4,1.66,4.33,3.18,4.74.8.21,1.4-.32,2-.75,1.14-.79,2.27-1.6,3.4-2.4A1,1,0,0,0,96,44.38l-3-4.61a1,1,0,0,0-1.32-.35,38.19,38.19,0,0,0-3.72,2.73c-.78.7.21,1.89,1.09,1.41a36.52,36.52,0,0,0,3.6-2.48l-1.31-.34c1,1.54,2,3.08,3,4.61L94.66,44l-2,1.44c-.34.25-1.73,1.51-2.1,1.43s-1.14-1.36-1.42-1.68a8,8,0,0,0-1.54-1.54c-.3-.2-.6.14-.55.42Z"/><path class="cls-3" d="M72.86,58.46c-1.57,1.51-2.17,3.86-.67,5.67a4.39,4.39,0,0,0,5.9.71c4.26-3.28-.18-9.34-4.77-8.09a.76.76,0,0,0,.2,1.49,6.11,6.11,0,0,1,3.86,1.07,2.8,2.8,0,0,1,.23,3.88c-2.51,3.08-6.85-1.45-4.22-4.2a.38.38,0,0,0-.53-.53Z"/><path class="cls-6" d="M109,72.42c-.54,2.81-1,5.63-1.43,8.47a.86.86,0,0,0,1,1c2.66-.39,5.31-.75,7.94-1.33a.79.79,0,0,0,.47-1.15c-1.49-2.62-3.39-6.27-6.19-7.7-.71-.36-1.71.42-1.18,1.18a38.15,38.15,0,0,0,3,3.2,23.11,23.11,0,0,1,3,4.11l.68-1.18c-2.75.27-5.46.76-8.18,1.23l1.07.82c.33-2.85.62-5.69.83-8.55a.54.54,0,0,0-1.06-.14Z"/><path class="cls-7" d="M96.78,67.2A49.51,49.51,0,0,0,98,58.65c0-.88-1.4-1.1-1.56-.21a49.71,49.71,0,0,0-.73,8.61.54.54,0,0,0,1,.15Z"/><path class="cls-5" d="M127.08,66.77a50.53,50.53,0,0,0,8.6.57.8.8,0,0,0,0-1.59,48.78,48.78,0,0,0-8.46,0c-.55,0-.78,1-.14,1Z"/><path class="cls-6" d="M104.22,31a48.38,48.38,0,0,0,7.89,3.51.8.8,0,0,0,.61-1.46,49.52,49.52,0,0,0-8.09-3,.54.54,0,0,0-.41,1Z"/><path class="cls-8" d="M112.65,54.62v0a.78.78,0,0,0-.09-.21,1.57,1.57,0,0,0-.69-.8l-.1,0-.38-.16a1.17,1.17,0,0,0-.64,0,.84.84,0,0,0-.41.11,1.08,1.08,0,0,0-.51.33l-.26.33-.16.38a1.39,1.39,0,0,0,0,.64,1.32,1.32,0,0,0,.19.6l0,.1a.52.52,0,0,0,.13.17l.13.17.34.26a1.18,1.18,0,0,0,.4.17h0a1.57,1.57,0,0,0,.86,0,1.64,1.64,0,0,0,.71-.41,1.69,1.69,0,0,0,.42-.72,1.79,1.79,0,0,0,0-.86Z"/><path class="cls-2" d="M50.65,3a10.26,10.26,0,0,0-6.32,6.13A10.56,10.56,0,0,0,45.12,18c2.94,5.06,10.48,6.69,15.24,3.3A11,11,0,0,0,62.22,5.77a11,11,0,0,0-15.58-.41"/></g></g></svg>