<svg xmlns="http://www.w3.org/2000/svg" viewBox="0 0 151.89 140"><defs><style>.cls-1{opacity:0.54;}.cls-2{fill:#ddd2f3;}.cls-3{fill:#b8abd6;}.cls-4{fill:#8aa9fc;}.cls-5{fill:#251a51;}.cls-6{fill:#f6aea6;}.cls-7{fill:#55318c;}.cls-8{fill:#edc483;}.cls-9{fill:#6338a1;}.cls-10{fill:#968abc;}.cls-11,.cls-12{fill:#fff;}.cls-12{opacity:0.41;}.cls-13{fill:#d6b0ea;}.cls-14{fill:#1a3066;}.cls-15{opacity:0.28;}.cls-16{opacity:0.12;}.cls-17{fill:#5944d8;}.cls-18{fill:#f9f2fc;}.cls-19{fill:#6e3281;}.cls-20{fill:#e3707f;}.cls-21{fill:#e8947e;}</style></defs><g id="Layer_2" data-name="Layer 2"><g id="Objects"><g class="cls-1"><path class="cls-2" d="M38.59,130.49C20,124.21,3.84,108.62.54,89.27S9.44,48.1,28.62,43.9c9.07-2,18.86-.21,27.53-3.55,16.34-6.28,21.9-27.54,37-36.41,14.55-8.54,34.5-2.38,45.33,10.55s14,30.77,13.34,47.63c-1,24.76-11.5,51.47-34,62-18.93,8.82-58.95,11.32-79.25,6.42"/></g><path class="cls-3" d="M16.73,126.83c4.11,6.54,12.58,9,20.31,8.84s15.27-2.37,23-2.82c12.22-.71,24.2,3,36.21,5.36s25.14,3.2,35.86-2.72c2.62-1.45,5.15-3.43,6.21-6.24s.11-6.52-2.66-7.68a9.37,9.37,0,0,0-3.42-.49L55,119.64c-13.1-.24-27.55,0-37.37,8.65"/><path class="cls-4" d="M124.57,47.54c-1.57,1.51-2.17,3.85-.67,5.67a4.4,4.4,0,0,0,5.9.7c4.26-3.28-.18-9.34-4.77-8.08a.76.76,0,0,0,.2,1.49,6,6,0,0,1,3.86,1.07,2.8,2.8,0,0,1,.23,3.88c-2.5,3.07-6.85-1.46-4.22-4.21a.37.37,0,0,0-.53-.52Z"/><path class="cls-5" d="M22.19,32.61A5.11,5.11,0,0,0,15,37.47c.06,1.36.6,2.9-.26,3.94-.67.81-1.86.89-2.81,1.32a3.93,3.93,0,0,0-1.89,5c.44,1,1.33,1.89,1.16,3a2.4,2.4,0,0,1-1.26,1.58c-.61.35-1.29.54-1.91.85A6.86,6.86,0,0,0,4.4,59.4a8.83,8.83,0,0,0,3.47,6.52A12.32,12.32,0,0,0,15,68.33a10.38,10.38,0,0,0,7.15-2.15,11.83,11.83,0,0,0,3.12-4.75,23.81,23.81,0,0,0,1.56-10.7c-.32-3.76-1.53-7.4-1.8-11.17a24.93,24.93,0,0,0-.35-3.77,4.82,4.82,0,0,0-2-3.11"/><path class="cls-5" d="M21.61,33.1a11.25,11.25,0,0,1,7.59-6,8.21,8.21,0,0,1,6,.75A5.42,5.42,0,0,1,37.86,33a16.75,16.75,0,0,1-1.28,3.57,3.78,3.78,0,0,0,.23,3.63c.72.88,2,1.09,2.95,1.66a4.42,4.42,0,0,1-.45,7.88,5.3,5.3,0,0,1,4.55,6.49,8.22,8.22,0,0,1-4,4.8,17.59,17.59,0,0,1-8.43,2.6c-3.15.15-6.64-.79-8.35-3.44-1.13-1.74-1.3-3.9-1.43-6-.38-6.25-.64-12.49-.9-18.74a11.22,11.22,0,0,1,.15-3"/><path class="cls-6" d="M32.22,61.3,60.48,71.89l-2.7-11.41,7.35-1.87S73,80.92,67.54,81.52c-9.61,1-24.15-2.76-24.15-2.76Z"/><path class="cls-7" d="M29.75,110S63.89,72.73,86.93,80.86,119.71,127,119.71,127l-18.36-.3S86.86,98,79.78,99.1s-28.92,28.39-28.92,28.39Z"/><path class="cls-8" d="M40.55,87.37,42,109.23c-7.36,9-33-2.65-33-2.65l-.3-9.14-.6-21.77c.59-8.67,8.65-12.93,8.65-12.93a28.15,28.15,0,0,1,13-2.37c4.77.23,6,2.52,7.92,6.88C39.23,70.77,43.54,76.5,40.55,87.37Z"/><path class="cls-9" d="M13.78,110.7s-3.92,16,8,18.46,55.86-3.36,67.3-2.36,44,2.9,44,2.9l2.38-18.93s-50.63-2.43-56.35-1S13.78,110.7,13.78,110.7Z"/><path class="cls-6" d="M19.5,82.82S15.92,103.92,21,103.4c16.61-1.71,26.5-1.94,26.5-1.94l2.75,5.72c.07,1-31.45,10-36.52,7-3.57-2.1-9.27-7.78-6.68-24.73l.61-5.69Z"/><polygon class="cls-10" points="34.49 113.11 34.45 111.7 55.3 108.76 60.84 89.4 83.93 88.84 77.7 109.79 34.49 113.11"/><path class="cls-11" d="M72,98.58a1.71,1.71,0,1,1-3.42.08A1.71,1.71,0,0,1,72,98.58Z"/><path class="cls-12" d="M72.65,98.56a2.4,2.4,0,1,1-2.45-2.34A2.39,2.39,0,0,1,72.65,98.56Z"/><path class="cls-8" d="M10.36,68.82s-3.87,3.72-4.74,17.8l15-1.66S23.12,61,10.36,68.82Z"/><path class="cls-13" d="M120.44,26.49s5.32,11.94,6.8,11.31,15.21-9.14,15.21-9.14S136.83,18,135.66,17.35,120.44,26.49,120.44,26.49Z"/><path class="cls-14" d="M135.66,17.35a23.72,23.72,0,0,1-1,3.2c-.69,2-1.67,4.66-2.79,7.62l-.08.21-.07.2-.21,0c-3.08-.5-5.85-1-7.85-1.35a22,22,0,0,1-3.21-.71,21.62,21.62,0,0,1,3.27.34c2,.28,4.79.71,7.87,1.2l-.29.17.08-.21c1.12-3,2.16-5.64,2.93-7.57A21,21,0,0,1,135.66,17.35Z"/><path class="cls-14" d="M125.5,36.4a18.65,18.65,0,0,1,.92-4.38,19.64,19.64,0,0,1,1.42-4.24,19.07,19.07,0,0,1-.92,4.38A20,20,0,0,1,125.5,36.4Z"/><path class="cls-14" d="M141.55,26.28a18,18,0,0,1-4.28-.41,18,18,0,0,1-4.2-.93,18,18,0,0,1,4.28.41A18,18,0,0,1,141.55,26.28Z"/><path class="cls-6" d="M17.87,39.31l.34,4.47s-3.8.52-2.71,4,3.68,2,3.68,2,.65,8.88,9.75,6.07c7.24-2.24,6.8-11.62,5.88-19.62a5.37,5.37,0,0,0-6.35-4.63L23,32.6A6.36,6.36,0,0,0,17.87,39.31Z"/><path class="cls-6" d="M18.21,47.49l2.46,13.08A5.24,5.24,0,0,0,27,64.7h0a5.23,5.23,0,0,0,3.94-6l-1.33-7.49Z"/><path class="cls-5" d="M28.28,47.64s.11.12.27.14.41-.16.47-.51a4.7,4.7,0,0,0,0-1.35l-.13-1.74a19.47,19.47,0,0,1,0-4.5,20.16,20.16,0,0,1,.54,4.46l.09,1.75a4,4,0,0,1-.12,1.48c-.12.45-.58.73-.87.6S28.26,47.64,28.28,47.64Z"/><path class="cls-5" d="M31.23,54.86s-.32.45-1.07.88a6.93,6.93,0,0,1-3.23.88,6.86,6.86,0,0,1-3.26-.74c-.76-.4-1.14-.78-1.1-.83a11.6,11.6,0,0,0,4.35,1.05A11.27,11.27,0,0,0,31.23,54.86Z"/><path class="cls-5" d="M29.45,49.47c.05,0-.06.33-.47.62a2.13,2.13,0,0,1-3.2-1c-.17-.47-.09-.78,0-.78s.14.27.36.62a2.2,2.2,0,0,0,1.18,1,2.23,2.23,0,0,0,1.51-.09C29.18,49.61,29.39,49.42,29.45,49.47Z"/><path class="cls-5" d="M17.93,48.19c0,.07-.22.17-.62.06a.89.89,0,0,1-.55-.52.87.87,0,0,1,0-.51A.67.67,0,0,1,17.93,47l-.44.23c-.29-.73-.43-1.29-.32-1.34s.43.43.77,1.14l-.44.23s-.08,0-.17,0-.14.14-.11.3a.55.55,0,0,0,.25.33C17.71,48.07,17.93,48.12,17.93,48.19Z"/><path class="cls-5" d="M31.92,41.92c-.14,0-.32-.26-.41-.65s-.05-.74.09-.78.32.27.41.66S32.06,41.89,31.92,41.92Z"/><path class="cls-5" d="M24.22,42.64c-.14,0-.34-.25-.45-.65s-.09-.74.05-.78.34.25.45.64S24.36,42.6,24.22,42.64Z"/><path class="cls-5" d="M24.93,39.39c0,.14-.45.13-.9.26s-.82.32-.92.22.17-.56.78-.72S25,39.26,24.93,39.39Z"/><path class="cls-5" d="M32.8,38.14c-.06.14-.51.07-1,.12s-1,.19-1,.06.32-.52,1-.58S32.86,38,32.8,38.14Z"/><path class="cls-5" d="M18.21,43.78c2.54-2.47,3.29-6.6,4-10.08a8.86,8.86,0,0,0,8.3,1.08,13.49,13.49,0,0,0,2.95,2.59,1.37,1.37,0,0,0,1.05.29c.42-.13.61-.62.72-1a7.57,7.57,0,0,0-.15-4.22,5.1,5.1,0,0,0-2.83-3,7.41,7.41,0,0,0-4.49.07,25.11,25.11,0,0,0-6.34,2.62,10.28,10.28,0,0,0-4.64,4.74c-.82,2.1-.82,6.17,1.17,7.23"/><g class="cls-15"><path class="cls-5" d="M28.58,50a1.09,1.09,0,1,1-2-.43c.39-.6.92-1,1.23-.9S28.46,49.25,28.58,50Z"/></g><g class="cls-16"><path class="cls-5" d="M25.41,45.81c.13.7-.74,1.45-2,1.5s-2.15-.6-2.08-1.32.94-1.23,2-1.28S25.29,45.1,25.41,45.81Z"/></g><g class="cls-16"><path class="cls-5" d="M35,45c.14.71-.62,1.45-1.72,1.51s-1.94-.61-1.87-1.32a1.69,1.69,0,0,1,1.73-1.28A1.71,1.71,0,0,1,35,45Z"/></g><path class="cls-17" d="M18.11,55.61a12.23,12.23,0,0,1-.32-3.2,12.28,12.28,0,0,1,0-3.21,8.45,8.45,0,0,1,.53,3.19A8.55,8.55,0,0,1,18.11,55.61Z"/><path class="cls-8" d="M33.21,61.2c-2.46-1,16.45,6,16.45,6L47.74,80.19l-7.19-2.36Z"/><path class="cls-5" d="M22,31.94a3.94,3.94,0,0,0,.53-3.1,2.17,2.17,0,0,0-1.76-1.76,1.92,1.92,0,0,0-1.36.57A2.79,2.79,0,0,0,22,32.39"/><path class="cls-5" d="M135,114.8s6.15-8.82,5.4-5.49-7,18.18-7,18.18Z"/><path class="cls-6" d="M45.72,101.47s8.13-2.55,7.85-1.72-1.66.87-3,2.23c0,0,9.09.09,8.65.84s-6.35.94-6.39,1.07,6.47.28,6.32,1-6.19.52-6.19.52,5.61.6,5.49,1.34-5.28.21-5.28.21,4.33.5,4.21,1.17c-.07.41-12.66.51-12.68.81s1.06-7.45,1.06-7.45"/><path class="cls-6" d="M58.31,61.2s-4.94-6.9-4.06-6.89,1.34,1.3,3,2.19c0,0-2.73-8.63-1.88-8.45s2.86,5.72,3,5.71-1.74-6.21-1-6.28,2.42,5.69,2.42,5.69-1.18-5.48-.44-5.61,1.84,4.93,1.84,4.93-.87-4.24-.2-4.34c.41-.07,4.14,10.46,4.14,10.46s-6.82,2.59-6.82,2.59"/><path class="cls-18" d="M17.23,76.35s.15-.37.7-.71a1.28,1.28,0,0,1,1.18-.1,1,1,0,0,1,.56.57,1.35,1.35,0,0,1,0,.8,1.46,1.46,0,0,0-.1,1.06,1,1,0,0,0,.6.56c.5.14.84-.08.88,0s-.24.44-1,.37a1.26,1.26,0,0,1-1-.72,1.33,1.33,0,0,1-.14-.72,3.75,3.75,0,0,1,.17-.68c.33-.81-.61-1-1.06-.8S17.28,76.42,17.23,76.35Z"/><path class="cls-18" d="M16.93,66.81s.15-.38.7-.72a1.31,1.31,0,0,1,1.18-.1,1,1,0,0,1,.56.57,1.35,1.35,0,0,1,0,.8,1.46,1.46,0,0,0-.1,1.06,1,1,0,0,0,.6.56c.5.14.84-.08.88,0s-.24.44-.95.37a1.27,1.27,0,0,1-1-.71,1.37,1.37,0,0,1-.14-.73,3.75,3.75,0,0,1,.17-.68c.33-.81-.61-1-1.06-.8S17,66.88,16.93,66.81Z"/><path class="cls-18" d="M26.4,79.24s-.39-.12-.78-.64a1.29,1.29,0,0,1-.2-1.17,1,1,0,0,1,.52-.6,1.21,1.21,0,0,1,.79,0c.49.11.79.17,1.08,0a.93.93,0,0,0,.49-.64c.11-.51-.14-.83-.08-.87s.46.2.45.91a1.29,1.29,0,0,1-.63,1,1.37,1.37,0,0,1-.71.2,4.34,4.34,0,0,1-.69-.11c-.84-.26-1,.7-.7,1.13S26.46,79.19,26.4,79.24Z"/><path class="cls-18" d="M32.85,89.23s-.18.35-.75.66a1.33,1.33,0,0,1-1.19,0,.94.94,0,0,1-.51-.61,1.23,1.23,0,0,1,.08-.79c.18-.46.29-.75.17-1.06a1,1,0,0,0-.56-.6c-.48-.18-.84,0-.87,0s.27-.42,1-.3a1.27,1.27,0,0,1,.9.78,1.31,1.31,0,0,1,.08.74,3.42,3.42,0,0,1-.21.66c-.4.79.53,1.08,1,.88S32.81,89.15,32.85,89.23Z"/><path class="cls-18" d="M40.45,73.48s-.18.36-.75.66a1.33,1.33,0,0,1-1.19,0,.94.94,0,0,1-.51-.61,1.3,1.3,0,0,1,.08-.79c.18-.46.29-.75.17-1.06a.92.92,0,0,0-.56-.59c-.48-.19-.84,0-.87-.06s.27-.42,1-.3a1.27,1.27,0,0,1,.9.78,1.31,1.31,0,0,1,.08.74,3.42,3.42,0,0,1-.21.66c-.4.79.53,1.08,1,.88S40.41,73.4,40.45,73.48Z"/><path class="cls-18" d="M45.64,71.08s.4,0,.88.49a1.32,1.32,0,0,1,.41,1.11,1,1,0,0,1-.4.69,1.26,1.26,0,0,1-.78.19,1.4,1.4,0,0,0-1,.2.92.92,0,0,0-.37.72c0,.52.3.79.24.84s-.49-.11-.61-.81a1.29,1.29,0,0,1,.43-1.12,1.24,1.24,0,0,1,.66-.32,3.49,3.49,0,0,1,.71,0c.86.11.83-.86.48-1.23S45.58,71.15,45.64,71.08Z"/><path class="cls-18" d="M24.66,97.37s-.18.36-.75.66a1.3,1.3,0,0,1-1.19,0,1,1,0,0,1-.52-.6,1.41,1.41,0,0,1,.08-.8,1.44,1.44,0,0,0,.18-1.06A.94.94,0,0,0,21.9,95c-.49-.18-.84,0-.87-.06s.27-.42,1-.3a1.31,1.31,0,0,1,.91.78,1.41,1.41,0,0,1,.08.74,4.79,4.79,0,0,1-.22.67c-.39.78.53,1.07,1,.87S24.61,97.3,24.66,97.37Z"/><path class="cls-18" d="M35.91,82.21s-.37-.16-.7-.72a1.34,1.34,0,0,1-.06-1.19,1,1,0,0,1,.59-.54,1.34,1.34,0,0,1,.8,0,1.39,1.39,0,0,0,1.06.13,1,1,0,0,0,.57-.58c.16-.5-.05-.84,0-.88s.43.26.34,1a1.32,1.32,0,0,1-1.47,1,3.72,3.72,0,0,1-.68-.18c-.8-.36-1.05.57-.83,1S36,82.17,35.91,82.21Z"/><path class="cls-18" d="M37.93,90.36s-.37-.17-.7-.73a1.32,1.32,0,0,1-.06-1.18,1,1,0,0,1,.59-.54,1.35,1.35,0,0,1,.8,0,1.39,1.39,0,0,0,1.06.13.93.93,0,0,0,.57-.58c.16-.49,0-.84,0-.87s.43.25.34,1a1.27,1.27,0,0,1-.74.93,1.38,1.38,0,0,1-.73.12,4.68,4.68,0,0,1-.68-.19c-.8-.36-1,.57-.83,1S38,90.31,37.93,90.36Z"/><path class="cls-18" d="M21.65,86.88c-.06,0-.17-.36,0-1a1.33,1.33,0,0,1,.75-.92,1,1,0,0,1,.79,0,1.32,1.32,0,0,1,.57.58c.23.43.38.69.7.81a1,1,0,0,0,.81,0c.45-.26.53-.66.6-.64s.15.48-.39.94a1.28,1.28,0,0,1-1.18.2,1.38,1.38,0,0,1-.62-.41,4,4,0,0,1-.37-.59c-.35-.8-1.17-.28-1.31.21S21.73,86.9,21.65,86.88Z"/><path class="cls-18" d="M36.35,96.94c-.05,0-.16-.37,0-1a1.33,1.33,0,0,1,.75-.92,1,1,0,0,1,.8,0,1.28,1.28,0,0,1,.56.57c.23.43.39.7.7.81a1,1,0,0,0,.82,0c.45-.26.52-.65.6-.63s.15.48-.4.94a1.27,1.27,0,0,1-1.18.19,1.35,1.35,0,0,1-.61-.41,3.65,3.65,0,0,1-.38-.59c-.35-.8-1.16-.28-1.31.21S36.43,97,36.35,96.94Z"/><path class="cls-18" d="M35.92,66.48c-.05,0-.16-.36,0-1a1.3,1.3,0,0,1,.75-.92.94.94,0,0,1,.79,0,1.28,1.28,0,0,1,.56.57c.24.44.39.7.7.81a1,1,0,0,0,.82,0c.45-.26.53-.66.6-.64s.15.48-.39.94a1.31,1.31,0,0,1-1.18.2,1.33,1.33,0,0,1-.62-.41,3.32,3.32,0,0,1-.37-.59c-.35-.81-1.17-.28-1.32.21S36,66.5,35.92,66.48Z"/><path class="cls-18" d="M31.12,101s-.4,0-.93-.37a1.33,1.33,0,0,1-.55-1.06,1,1,0,0,1,.31-.73,1.33,1.33,0,0,1,.74-.29c.5,0,.8-.08,1-.32a.93.93,0,0,0,.28-.77c-.06-.52-.39-.74-.34-.8s.5,0,.71.73a1.31,1.31,0,0,1-.29,1.16,1.35,1.35,0,0,1-.62.41,4.9,4.9,0,0,1-.69.11c-.88,0-.72,1-.33,1.28S31.17,100.91,31.12,101Z"/><path class="cls-18" d="M30.51,68.07s.35.2.63.79A1.34,1.34,0,0,1,31.08,70a1,1,0,0,1-.63.48,1.31,1.31,0,0,1-.8-.12c-.44-.21-.72-.33-1-.23a.94.94,0,0,0-.63.52c-.21.48,0,.84-.1.87s-.41-.3-.24-1a1.25,1.25,0,0,1,.82-.86,1.33,1.33,0,0,1,.74,0,4.56,4.56,0,0,1,.66.25c.76.44,1.1-.47.92-1S30.44,68.11,30.51,68.07Z"/><path class="cls-5" d="M20.14,85.78a3.72,3.72,0,0,1,0-1c0-.66.11-1.61.22-2.79.21-2.35.54-5.6.92-9.17a10.47,10.47,0,0,0,0-2.56,4.49,4.49,0,0,0-.89-2.12A5.88,5.88,0,0,0,17.1,66a10,10,0,0,0-2.74-.24,5.68,5.68,0,0,1-1,0,2.94,2.94,0,0,1,1-.22,8.64,8.64,0,0,1,2.83.08,6.15,6.15,0,0,1,3.62,2.14,4.83,4.83,0,0,1,1,2.33,10.53,10.53,0,0,1,0,2.69c-.39,3.59-.77,6.82-1.07,9.16-.16,1.17-.29,2.12-.39,2.77A4,4,0,0,1,20.14,85.78Z"/><path class="cls-5" d="M20.8,85A57.06,57.06,0,0,1,13.17,86a58.24,58.24,0,0,1-7.69.56,54.51,54.51,0,0,1,7.64-1.07A55.2,55.2,0,0,1,20.8,85Z"/><path class="cls-5" d="M41.63,83.27a19.75,19.75,0,0,0-.29-6.62,20,20,0,0,0-2.9-6,5.12,5.12,0,0,1,1.37,1.45,12.87,12.87,0,0,1,2,4.38,13.16,13.16,0,0,1,.3,4.82A5,5,0,0,1,41.63,83.27Z"/><path class="cls-19" d="M81.66,83.52a5.61,5.61,0,0,1,.58-2.43c1-1.51,2.32-1.14,3.63-.47a4.52,4.52,0,0,0,4,.45c2.3-1,3.31-4.39,1.18-6-.69-.53-1.41.35-1.3,1,.14.93.59,1.95-.2,2.74-1.06,1.06-2.3.17-3.36-.31a4.4,4.4,0,0,0-3.52-.15c-2,.82-3.5,3.56-1.89,5.41a.5.5,0,0,0,.83-.21Z"/><path class="cls-8" d="M87,44.11c.21,1.4,1.66,4.33,3.18,4.74.8.21,1.4-.32,2-.75,1.14-.79,2.27-1.6,3.4-2.4A1,1,0,0,0,96,44.38l-3-4.61a1,1,0,0,0-1.32-.35,38.19,38.19,0,0,0-3.72,2.73c-.78.7.21,1.89,1.09,1.41a36.52,36.52,0,0,0,3.6-2.48l-1.31-.34c1,1.54,2,3.08,3,4.61L94.66,44l-2,1.44c-.34.25-1.73,1.51-2.1,1.43s-1.14-1.36-1.42-1.68a8,8,0,0,0-1.54-1.54c-.3-.2-.6.14-.55.42Z"/><path class="cls-4" d="M72.86,58.46c-1.57,1.51-2.17,3.86-.67,5.67a4.39,4.39,0,0,0,5.9.71c4.26-3.28-.18-9.34-4.77-8.09a.76.76,0,0,0,.2,1.49,6.11,6.11,0,0,1,3.86,1.07,2.8,2.8,0,0,1,.23,3.88c-2.51,3.08-6.85-1.45-4.22-4.2a.38.38,0,0,0-.53-.53Z"/><path class="cls-20" d="M109,72.42c-.54,2.81-1,5.63-1.43,8.47a.86.86,0,0,0,1,1c2.66-.39,5.31-.75,7.94-1.33a.79.79,0,0,0,.47-1.15c-1.49-2.62-3.39-6.27-6.19-7.7-.71-.36-1.71.42-1.18,1.18a38.15,38.15,0,0,0,3,3.2,23.11,23.11,0,0,1,3,4.11l.68-1.18c-2.75.27-5.46.76-8.18,1.23l1.07.82c.33-2.85.62-5.69.83-8.55a.54.54,0,0,0-1.06-.14Z"/><path class="cls-21" d="M96.78,67.2A49.51,49.51,0,0,0,98,58.65c0-.88-1.4-1.1-1.56-.21a49.71,49.71,0,0,0-.73,8.61.54.54,0,0,0,1,.15Z"/><path class="cls-8" d="M127.08,66.77a50.53,50.53,0,0,0,8.6.57.8.8,0,0,0,0-1.59,48.78,48.78,0,0,0-8.46,0c-.55,0-.78,1-.14,1Z"/><path class="cls-20" d="M104.22,31a48.38,48.38,0,0,0,7.89,3.51.8.8,0,0,0,.61-1.46,49.52,49.52,0,0,0-8.09-3,.54.54,0,0,0-.41,1Z"/><path class="cls-5" d="M112.65,54.62v0a.78.78,0,0,0-.09-.21,1.57,1.57,0,0,0-.69-.8l-.1,0-.38-.16a1.17,1.17,0,0,0-.64,0,.84.84,0,0,0-.41.11,1.08,1.08,0,0,0-.51.33l-.26.33-.16.38a1.39,1.39,0,0,0,0,.64,1.32,1.32,0,0,0,.19.6l0,.1a.52.52,0,0,0,.13.17l.13.17.34.26a1.18,1.18,0,0,0,.4.17h0a1.57,1.57,0,0,0,.86,0,1.64,1.64,0,0,0,.71-.41,1.69,1.69,0,0,0,.42-.72,1.79,1.79,0,0,0,0-.86Z"/><path class="cls-2" d="M50.65,3a10.26,10.26,0,0,0-6.32,6.13A10.56,10.56,0,0,0,45.12,18c2.94,5.06,10.48,6.69,15.24,3.3A11,11,0,0,0,62.22,5.77a11,11,0,0,0-15.58-.41"/></g></g></svg>